<svg width="216" height="145" viewBox="0 0 216 145" fill="none" xmlns="http://www.w3.org/2000/svg">
<g clip-path="url(#clip0_36_297)">
<path d="M173.019 18.9212L173.71 13.3769C173.832 12.401 174.144 11.4585 174.63 10.6033C175.115 9.74815 175.765 8.99705 176.541 8.39292C177.317 7.7888 178.204 7.34348 179.153 7.08241C180.101 6.82134 181.091 6.74963 182.067 6.87138C183.043 6.99313 183.985 7.30595 184.84 7.79198C185.695 8.27801 186.446 8.92773 187.05 9.704C187.654 10.4803 188.099 11.3679 188.359 12.3162C188.62 13.2645 188.691 14.2548 188.569 15.2307L187.877 20.775C187.844 21.0395 187.707 21.28 187.497 21.4438C187.286 21.6075 187.019 21.6811 186.755 21.6484L173.892 20.0437C173.628 20.0104 173.387 19.8735 173.223 19.6631C173.059 19.4526 172.986 19.1858 173.019 18.9212Z" fill="#2F2E41"/>
<path d="M179.18 20.5753C182.212 20.5753 184.669 18.1177 184.669 15.0861C184.669 12.0545 182.212 9.59692 179.18 9.59692C176.149 9.59692 173.691 12.0545 173.691 15.0861C173.691 18.1177 176.149 20.5753 179.18 20.5753Z" fill="#FFB8B8"/>
<path d="M171.897 13.6012C172.094 12.0433 172.9 10.6268 174.139 9.66246C175.378 8.69815 176.949 8.26478 178.508 8.45741L179.616 8.59576C181.174 8.79191 182.591 9.59802 183.555 10.8372C184.519 12.0765 184.953 13.6476 184.76 15.2059L184.746 15.3168L182.403 15.0244L181.883 12.6866L181.444 14.9048L180.233 14.7537L179.97 13.5742L179.749 14.6933L171.884 13.7121L171.897 13.6012Z" fill="#2F2E41"/>
<path d="M152.333 34.667C152.5 34.9964 152.738 35.285 153.03 35.5125C153.321 35.7399 153.659 35.9008 154.019 35.9836C154.379 36.0665 154.753 36.0693 155.115 35.992C155.476 35.9146 155.816 35.7589 156.111 35.5359L161.097 38.4565L163.611 35.8596L156.512 31.8341C156.105 31.3636 155.539 31.059 154.922 30.978C154.305 30.8969 153.679 31.045 153.164 31.3942C152.649 31.7434 152.28 32.2694 152.126 32.8726C151.973 33.4758 152.047 34.1143 152.333 34.667Z" fill="#FFB8B8"/>
<path d="M168.673 39.915C164.995 39.915 158.524 38.2687 158.166 38.1767L158.053 38.1477L159.071 32.991L168.955 34.9433L174.325 27.3816L180.49 26.7548L180.318 26.9813C180.238 27.0868 172.291 37.5483 171.054 39.3032C170.742 39.746 169.851 39.915 168.673 39.915Z" fill="#3F3D56"/>
<path d="M169.659 59.2694L169.512 59.1991C169.481 59.1842 166.356 57.6644 164.738 54.6975C163.127 51.7446 170.667 39.2184 171.194 38.3493L171.202 34.3713L173.914 27.0484L177.373 25.0933L174.404 32.0229L169.659 59.2694Z" fill="#3F3D56"/>
<path d="M166.194 102.025L162.888 102.024L161.315 89.2731L166.194 89.2733L166.194 102.025Z" fill="#FFB8B8"/>
<path d="M167.037 105.229L156.377 105.229V105.094C156.377 103.994 156.814 102.938 157.592 102.16C158.37 101.382 159.426 100.945 160.526 100.945H160.526L167.037 100.945L167.037 105.229Z" fill="#2F2E41"/>
<path d="M201.703 99.1274L198.561 100.157L193.096 88.5291L197.733 87.0101L201.703 99.1274Z" fill="#FFB8B8"/>
<path d="M203.502 101.91L193.372 105.229L193.33 105.101C192.988 104.055 193.075 102.916 193.572 101.935C194.069 100.953 194.936 100.209 195.981 99.8664L195.981 99.8663L202.168 97.8392L203.502 101.91Z" fill="#2F2E41"/>
<path d="M195.302 97.0427L185.878 81.3094L177.922 64.5002L170.763 79.3484L167.919 98.5792L157.946 98.7178L157.985 98.5618L173.248 37.916L185.201 39.7018L184.657 47.5921L184.981 48.053C187.682 51.889 190.474 55.8552 188.872 60.1306L193.412 73.6097L203.46 96.0539L195.302 97.0427Z" fill="#2F2E41"/>
<path d="M173.794 51.0597C172.062 51.0597 170.086 49.0819 171.111 45.7053L171.045 45.6573L173.507 34.7777C171.358 31.7043 174.191 29.1679 174.457 28.9413L175.809 26.5069L181.777 22.7224L184.796 47.8089L184.751 47.8516C182.571 49.938 175.247 51.0597 173.794 51.0597Z" fill="#0D5474"/>
<path d="M186.015 56.7205C185.778 56.7241 185.541 56.6991 185.31 56.6458C185.078 56.5877 184.702 56.2922 184.121 54.4018C181.813 46.8869 179.088 24.2754 181.068 22.0627L181.113 22.012L184.364 22.5538C184.634 22.3544 186.052 21.3645 187.361 21.5367C187.63 21.5706 187.89 21.6593 188.123 21.7975C188.357 21.9356 188.56 22.1202 188.72 22.3399L188.742 22.3692L189.778 37.1021L193.572 54.4399L193.481 54.4812C193.26 54.5817 188.522 56.7205 186.015 56.7205Z" fill="#3F3D56"/>
<path d="M183.829 50.9621C184.198 50.9497 184.56 50.8566 184.89 50.6891C185.22 50.5216 185.508 50.2839 185.736 49.9928C185.964 49.7016 186.125 49.364 186.208 49.0039C186.291 48.6437 186.294 48.2696 186.217 47.9081L190.976 44.6306L189.69 41.253L183.035 45.9759C182.436 46.1455 181.92 46.5289 181.585 47.0534C181.25 47.5779 181.119 48.2071 181.217 48.8217C181.315 49.4363 181.635 49.9937 182.116 50.3882C182.598 50.7826 183.207 50.9868 183.829 50.9621H183.829Z" fill="#FFB8B8"/>
<path d="M189.406 47.2568L185.167 44.1484L191.125 36.0237L186.553 27.9549L188.599 22.1053L188.731 22.3573C188.792 22.4746 194.899 34.1069 195.964 35.9711C197.072 37.9102 189.791 46.7896 189.48 47.1665L189.406 47.2568Z" fill="#3F3D56"/>
<path d="M147.788 64.5798L69.9033 67.2198C67.9783 67.2828 66.1069 66.5797 64.6996 65.2648C63.2924 63.9498 62.4642 62.1303 62.3967 60.2054L61.1141 22.3631C61.051 20.4381 61.7541 18.5667 63.0691 17.1594C64.3841 15.7521 66.2036 14.924 68.1284 14.8565L146.013 12.2166C147.938 12.1535 149.81 12.8566 151.217 14.1716C152.624 15.4866 153.452 17.3061 153.52 19.231L154.802 57.0733C154.865 58.9983 154.162 60.8697 152.847 62.277C151.532 63.6842 149.713 64.5124 147.788 64.5798Z" fill="white"/>
<path d="M154.802 57.0733L154.809 57.2735C154.871 59.1125 154.2 60.9007 152.944 62.2449C151.687 63.5891 149.948 64.3792 148.109 64.4412L69.8351 67.0943C67.9965 67.1565 66.2085 66.4858 64.8644 65.2297C63.5203 63.9737 62.73 62.2353 62.6675 60.3967L62.6608 60.1965L154.802 57.0733Z" fill="#F2F2F2"/>
<path d="M77.9133 26.6395C72.3041 28.2284 67.0787 24.0486 66.0552 20.0414L66.4467 19.9577C71.1786 18.7422 76.6163 21.9698 77.9133 26.6395Z" fill="#0D5474"/>
<path d="M133.37 53.6918C132.106 53.7346 131.089 53.3929 130.345 52.676C128.664 51.0556 128.657 47.8227 128.65 45.225C128.649 44.4693 128.647 43.7554 128.604 43.1589L128.603 43.1499C128.57 41.9827 128.998 40.8492 129.795 39.9958C130.592 39.1424 131.693 38.638 132.86 38.5921L143.336 38.237C144.598 38.1943 145.615 38.5355 146.358 39.2514C148.039 40.8704 148.048 44.1025 148.055 46.6995C148.057 47.4568 148.059 48.1722 148.102 48.7698C148.138 49.9387 147.71 51.0743 146.913 51.9296C146.115 52.7849 145.012 53.2906 143.844 53.3368L133.37 53.6918ZM129.043 43.1319C129.087 43.7427 129.089 44.4623 129.091 45.224C129.097 47.7386 129.104 50.8681 130.651 52.359C131.315 52.9989 132.199 53.291 133.355 53.2518L143.828 52.8968C144.879 52.8556 145.871 52.4015 146.589 51.633C147.307 50.8645 147.693 49.8438 147.663 48.7926C147.619 48.1888 147.617 47.466 147.615 46.7007C147.608 44.1868 147.599 41.0581 146.053 39.5685C145.389 38.9296 144.506 38.6379 143.351 38.6771L132.876 39.0321C131.826 39.0736 130.835 39.5273 130.117 40.2948C129.4 41.0623 129.014 42.0817 129.043 43.1319Z" fill="#3F3D56"/>
<path d="M75.6126 27.1228C73.7753 27.174 71.9605 26.7085 70.3745 25.7795C68.0519 24.4432 66.2577 22.2376 65.692 20.0239L65.6353 19.802L66.2463 19.6712C71.0489 18.4392 76.6385 21.6952 77.9754 26.5064L78.034 26.7174L77.8234 26.7771C77.1032 26.9815 76.3608 27.0976 75.6126 27.1228ZM66.1794 20.1358C66.7767 22.1639 68.4487 24.1634 70.5941 25.3979C72.6697 26.6291 75.1467 26.9933 77.4888 26.4115C76.109 21.9336 70.8648 18.9363 66.3516 20.0988L66.1794 20.1358Z" fill="#3F3D56"/>
<path d="M70.3563 52.3326C69.6945 52.3796 69.0323 52.2455 68.4408 51.9447C67.8494 51.6439 67.351 51.1877 66.9992 50.6251C66.5912 49.9545 66.3628 49.1901 66.3359 48.4057C66.3091 47.6212 66.4847 46.843 66.846 46.1461C67.1655 45.5492 67.6441 45.0525 68.2287 44.7109C68.8133 44.3694 69.481 44.1963 70.1579 44.2109L84.1164 43.7378C84.7903 43.6791 85.4673 43.8075 86.0728 44.1091C86.6784 44.4106 87.1889 44.8735 87.5481 45.4468C87.9557 46.1174 88.1838 46.8817 88.2103 47.6661C88.2368 48.4505 88.0609 49.2285 87.6995 49.9251C87.0423 51.1425 85.866 51.8207 84.3882 51.8564L70.4295 52.3296C70.405 52.3307 70.3807 52.3317 70.3563 52.3326ZM70.1042 44.6528C69.5162 44.6489 68.9383 44.8054 68.4325 45.1053C67.9267 45.4052 67.5122 45.8373 67.2335 46.3551C66.9081 46.9829 66.7499 47.6839 66.774 48.3907C66.7982 49.0974 67.004 49.786 67.3716 50.3901C67.6904 50.8964 68.1431 51.3045 68.6796 51.5692C69.2162 51.8339 69.8155 51.9448 70.4113 51.8896L84.3766 51.4163C84.9751 51.4313 85.5662 51.2805 86.0843 50.9804C86.6024 50.6803 87.0273 50.2426 87.312 49.716C87.6376 49.0883 87.7961 48.3874 87.7722 47.6808C87.7483 46.9741 87.5428 46.2855 87.1755 45.6814C86.856 45.1752 86.4031 44.767 85.8665 44.5017C85.3299 44.2364 84.7306 44.1243 84.1344 44.1777L70.1682 44.6511C70.1468 44.6515 70.1254 44.652 70.1042 44.6527V44.6528Z" fill="#3F3D56"/>
<path d="M136.618 43.7027L132.218 43.8519C131.926 43.8614 131.643 43.7548 131.43 43.5555C131.217 43.3562 131.091 43.0806 131.082 42.789C131.072 42.4975 131.178 42.214 131.377 42.0008C131.576 41.7875 131.851 41.662 132.143 41.6517L136.543 41.5026C136.835 41.4927 137.119 41.5991 137.332 41.7984C137.545 41.9977 137.671 42.2736 137.681 42.5654C137.691 42.8571 137.584 43.1409 137.385 43.3542C137.185 43.5675 136.91 43.6928 136.618 43.7027L136.618 43.7027Z" fill="#0D5474"/>
<path d="M136.737 47.223L132.337 47.3721C132.192 47.3772 132.048 47.3538 131.913 47.3031C131.777 47.2525 131.653 47.1756 131.547 47.0769C131.441 46.9782 131.356 46.8596 131.296 46.7279C131.236 46.5962 131.203 46.454 131.198 46.3094C131.193 46.1648 131.217 46.0207 131.268 45.8852C131.318 45.7498 131.395 45.6257 131.494 45.52C131.593 45.4144 131.712 45.3293 131.844 45.2696C131.975 45.2098 132.118 45.1767 132.262 45.172L136.663 45.0228C136.807 45.0177 136.951 45.0412 137.087 45.0918C137.222 45.1425 137.347 45.2194 137.452 45.3181C137.558 45.4168 137.643 45.5354 137.703 45.6671C137.763 45.7988 137.797 45.941 137.802 46.0856C137.806 46.2302 137.783 46.3743 137.732 46.5098C137.681 46.6452 137.604 46.7693 137.505 46.8749C137.406 46.9806 137.288 47.0657 137.156 47.1254C137.024 47.1851 136.882 47.2183 136.737 47.223Z" fill="#0D5474"/>
<path d="M136.856 50.7432L132.456 50.8923C132.164 50.9022 131.881 50.7958 131.667 50.5965C131.454 50.3972 131.329 50.1213 131.319 49.8296C131.309 49.5378 131.415 49.2541 131.615 49.0408C131.814 48.8275 132.09 48.7021 132.382 48.6922L136.782 48.5431C136.926 48.5382 137.07 48.5618 137.206 48.6125C137.341 48.6633 137.465 48.7402 137.571 48.8389C137.676 48.9376 137.761 49.0561 137.821 49.1877C137.881 49.3193 137.914 49.4614 137.919 49.6058C137.924 49.7503 137.901 49.8943 137.85 50.0296C137.799 50.165 137.722 50.289 137.623 50.3946C137.525 50.5002 137.406 50.5854 137.275 50.6452C137.143 50.705 137.001 50.7383 136.856 50.7432Z" fill="#0D5474"/>
<path d="M144.318 43.4417L139.918 43.5909C139.773 43.596 139.629 43.5725 139.494 43.5219C139.358 43.4712 139.234 43.3943 139.128 43.2956C139.022 43.1969 138.937 43.0783 138.877 42.9466C138.817 42.8149 138.784 42.6727 138.779 42.5281C138.774 42.3835 138.798 42.2394 138.849 42.1039C138.899 41.9685 138.976 41.8444 139.075 41.7388C139.174 41.6331 139.293 41.548 139.425 41.4883C139.556 41.4286 139.699 41.3954 139.843 41.3907L144.244 41.2416C144.388 41.2367 144.532 41.2603 144.667 41.3111C144.803 41.3618 144.927 41.4387 145.032 41.5374C145.138 41.6361 145.223 41.7546 145.283 41.8862C145.343 42.0178 145.376 42.1599 145.381 42.3044C145.386 42.4488 145.362 42.5928 145.312 42.7282C145.261 42.8635 145.184 42.9875 145.085 43.0932C144.986 43.1988 144.868 43.2839 144.736 43.3437C144.605 43.4035 144.463 43.4368 144.318 43.4417Z" fill="#0D5474"/>
<path d="M144.438 46.9619L140.037 47.1111C139.746 47.121 139.462 47.0146 139.249 46.8152C139.035 46.6159 138.91 46.3401 138.9 46.0483C138.89 45.7565 138.996 45.4728 139.196 45.2595C139.395 45.0462 139.671 44.9208 139.963 44.9109L144.363 44.7618C144.508 44.7567 144.652 44.7801 144.787 44.8308C144.923 44.8815 145.047 44.9583 145.153 45.057C145.259 45.1557 145.344 45.2743 145.404 45.406C145.464 45.5377 145.497 45.6799 145.502 45.8245C145.507 45.9691 145.483 46.1133 145.432 46.2487C145.381 46.3842 145.304 46.5083 145.206 46.6139C145.107 46.7195 144.988 46.8047 144.856 46.8644C144.724 46.9241 144.582 46.9572 144.438 46.9619V46.9619Z" fill="#0D5474"/>
<path d="M144.557 50.4821L140.157 50.6313C140.012 50.6364 139.868 50.6129 139.732 50.5623C139.597 50.5116 139.473 50.4347 139.367 50.336C139.261 50.2373 139.176 50.1187 139.116 49.987C139.056 49.8554 139.023 49.7131 139.018 49.5686C139.013 49.424 139.036 49.2798 139.087 49.1444C139.138 49.0089 139.215 48.8848 139.314 48.7792C139.413 48.6736 139.532 48.5884 139.663 48.5287C139.795 48.469 139.937 48.4358 140.082 48.4312L144.482 48.282C144.627 48.2771 144.771 48.3007 144.906 48.3515C145.041 48.4022 145.166 48.4792 145.271 48.5778C145.377 48.6765 145.462 48.795 145.522 48.9266C145.581 49.0582 145.615 49.2003 145.62 49.3448C145.625 49.4892 145.601 49.6333 145.55 49.7686C145.499 49.9039 145.423 50.0279 145.324 50.1336C145.225 50.2392 145.107 50.3243 144.975 50.3841C144.843 50.4439 144.701 50.4772 144.557 50.4821Z" fill="#0D5474"/>
<path d="M153.8 27.4687L61.6578 30.592L61.6727 31.032L153.815 27.9088L153.8 27.4687Z" fill="#3F3D56"/>
<path d="M147.788 64.5798L69.9033 67.2198C67.9783 67.2828 66.1069 66.5797 64.6996 65.2648C63.2924 63.9498 62.4642 62.1303 62.3967 60.2054L61.1141 22.3631C61.051 20.4381 61.7541 18.5667 63.0691 17.1594C64.3841 15.7521 66.2036 14.924 68.1284 14.8565L146.013 12.2166C147.938 12.1535 149.81 12.8566 151.217 14.1716C152.624 15.4866 153.452 17.3061 153.52 19.231L154.802 57.0733C154.865 58.9983 154.162 60.8697 152.847 62.277C151.532 63.6842 149.713 64.5124 147.788 64.5798ZM68.1433 15.2965C66.3352 15.3599 64.6259 16.1379 63.3906 17.4599C62.1554 18.7818 61.4949 20.5398 61.5541 22.3481L62.8368 60.1905C62.9001 61.9987 63.6781 63.7079 65.0001 64.9432C66.3221 66.1785 68.0801 66.8389 69.8884 66.7797L147.773 64.1398C149.581 64.0765 151.291 63.2985 152.526 61.9765C153.761 60.6545 154.422 58.8965 154.362 57.0882L153.08 19.2459C153.016 17.4377 152.238 15.7285 150.916 14.4932C149.594 13.2579 147.836 12.5974 146.028 12.6566L68.1433 15.2965Z" fill="#3F3D56"/>
<path d="M36.1966 55.2168C36.1783 54.8297 36.0753 54.4514 35.8949 54.1084C35.7145 53.7654 35.4612 53.4662 35.1526 53.2318C34.8441 52.9973 34.4879 52.8334 34.1092 52.7515C33.7304 52.6696 33.3383 52.6717 32.9605 52.7578L29.4553 47.8179L25.9338 49.2159L30.9819 56.1223C31.1685 56.7475 31.5779 57.2825 32.1326 57.6259C32.6873 57.9694 33.3487 58.0974 33.9915 57.9858C34.6343 57.8742 35.2138 57.5306 35.6202 57.0203C36.0266 56.5099 36.2317 55.8682 36.1966 55.2168H36.1966Z" fill="#A0616A"/>
<path d="M29.365 54.8507L18.7588 41.0913L22.7329 28.6014C23.0241 25.4613 24.989 24.5845 25.0726 24.5487L25.2002 24.494L28.6583 33.716L26.1192 40.487L32.3514 50.9686L29.365 54.8507Z" fill="#3F3D56"/>
<path d="M66.1987 12.4349C65.8142 12.4831 65.445 12.615 65.117 12.8214C64.789 13.0277 64.5103 13.3035 64.3004 13.6292C64.0905 13.955 63.9546 14.3228 63.9022 14.7067C63.8498 15.0906 63.8823 15.4814 63.9973 15.8515L59.3433 19.7281L61.0093 23.1309L67.5048 17.564C68.1136 17.3297 68.6154 16.8801 68.9149 16.3005C69.2144 15.7209 69.2909 15.0516 69.1299 14.4194C68.969 13.7871 68.5817 13.2359 68.0414 12.8702C67.5012 12.5044 66.8455 12.3495 66.1987 12.4349H66.1987Z" fill="#A0616A"/>
<path d="M66.3619 19.2743L53.4637 30.9126L40.704 27.9161C37.5508 27.8685 36.5246 25.9772 36.4824 25.8967L36.418 25.7737L45.3451 21.6129L52.2921 23.6209L62.2605 16.597L66.3619 19.2743Z" fill="#3F3D56"/>
<path d="M44.0203 102.011H47.4858L49.1342 88.644L44.0195 88.6442L44.0203 102.011Z" fill="#A0616A"/>
<path d="M54.1693 105.229L43.2777 105.229L43.2775 101.021L50.4385 101.021C51.4279 101.021 52.3768 101.414 53.0765 102.113C53.7761 102.813 54.1692 103.762 54.1692 104.751L54.1693 105.229Z" fill="#2F2E41"/>
<path d="M30.1694 102.011H33.6349L35.2833 88.644L30.1686 88.6442L30.1694 102.011Z" fill="#A0616A"/>
<path d="M40.3184 105.229L29.4268 105.229L29.4266 101.021L36.5876 101.021C37.0775 101.021 37.5626 101.117 38.0153 101.305C38.4679 101.492 38.8791 101.767 39.2256 102.113C39.572 102.46 39.8468 102.871 40.0343 103.323C40.2218 103.776 40.3183 104.261 40.3183 104.751L40.3184 105.229Z" fill="#2F2E41"/>
<path d="M28.9368 53.2204L29.2195 73.0075L29.5019 99.0133L35.7209 98.4479L38.8302 62.5487L42.7877 98.4479H49.2079L49.8545 62.2659L47.593 54.351L28.9368 53.2204Z" fill="#2F2E41"/>
<path d="M41.1084 55.8775C34.342 55.878 28.1136 52.8155 28.0295 52.7734L27.9597 52.7385L27.3918 39.1113C27.2272 38.6298 23.9848 29.1277 23.4357 26.1075C22.8793 23.0476 30.943 20.3621 31.9222 20.0481L32.1444 17.5865L41.1807 16.6128L42.3259 19.7625L45.5678 20.9781C45.9353 21.116 46.2395 21.3839 46.4226 21.7311C46.6058 22.0783 46.6553 22.4806 46.5616 22.8618L44.7599 30.189L49.1604 54.4307L48.213 54.4717C45.9714 55.4391 43.5495 55.9183 41.1084 55.8775Z" fill="#3F3D56"/>
<path d="M37.0166 15.0541C40.6098 15.0541 43.5227 12.1412 43.5227 8.54794C43.5227 4.95467 40.6098 2.04175 37.0166 2.04175C33.4233 2.04175 30.5104 4.95467 30.5104 8.54794C30.5104 12.1412 33.4233 15.0541 37.0166 15.0541Z" fill="#A0616A"/>
<path d="M31.7466 14.8461C32.9865 16.1669 35.2892 15.4579 35.4508 13.6535C35.4635 13.5134 35.4625 13.3724 35.448 13.2325C35.3646 12.4332 34.9029 11.7076 35.0135 10.8637C35.0385 10.6537 35.1168 10.4535 35.2408 10.2822C36.2289 8.95908 38.5483 10.874 39.4808 9.67621C40.0526 8.94177 39.3804 7.78542 39.8192 6.96456C40.3983 5.88116 42.1137 6.41561 43.1894 5.82228C44.3862 5.16213 44.3146 3.32584 43.5268 2.20892C42.566 0.846782 40.8814 0.119947 39.2178 0.0151968C37.5542 -0.089553 35.902 0.360157 34.3489 0.965428C32.5842 1.65314 30.8343 2.60356 29.7483 4.15524C28.4277 6.04224 28.3006 8.57914 28.9611 10.7856C29.3629 12.1279 30.7341 13.7675 31.7466 14.8461Z" fill="#2F2E41"/>
<path d="M215.339 105.582H0.264219C0.194144 105.582 0.126939 105.555 0.0773878 105.505C0.0278371 105.455 0 105.388 0 105.318C0 105.248 0.0278371 105.181 0.0773878 105.131C0.126939 105.082 0.194144 105.054 0.264219 105.054H215.339C215.409 105.054 215.476 105.082 215.526 105.131C215.575 105.181 215.603 105.248 215.603 105.318C215.603 105.388 215.575 105.455 215.526 105.505C215.476 105.555 215.409 105.582 215.339 105.582Z" fill="#CACACA"/>
<path d="M119.936 141.974L123.058 141.974L124.542 129.934L119.936 129.934L119.936 141.974Z" fill="#FFB8B8"/>
<path d="M119.14 140.955L125.287 140.955H125.287C126.326 140.955 127.323 141.368 128.057 142.102C128.792 142.837 129.205 143.833 129.205 144.872V145L119.14 145L119.14 140.955Z" fill="#2F2E41"/>
<path d="M90.9107 141.974L94.0322 141.974L95.5171 129.934L90.9102 129.934L90.9107 141.974Z" fill="#FFB8B8"/>
<path d="M90.1144 140.955L96.2617 140.955H96.2619C97.3009 140.955 98.2973 141.368 99.0319 142.102C99.7666 142.837 100.179 143.833 100.179 144.872V145L90.1146 145L90.1144 140.955Z" fill="#2F2E41"/>
<path d="M121.18 80.8745C121.18 80.8745 123.8 87.9861 123.426 90.9804C123.052 93.9748 126.046 114.935 125.672 116.807C125.297 118.678 126.046 128.036 125.672 129.533C125.297 131.03 126.722 132.818 125.974 134.316C125.225 135.813 124.175 138.89 124.175 138.89L119.309 138.516L118.56 134.399C118.56 134.399 116.314 134.024 116.689 131.779C117.063 129.533 114.817 114.561 114.817 114.561L108.454 93.6005L99.4711 112.69C99.4711 112.69 99.0968 126.164 97.9739 127.661C96.851 129.159 99.0968 133.276 97.9739 134.773C96.851 136.27 95.7281 138.89 95.7281 138.89H90.1136V135.896C90.1136 135.896 86.745 134.024 90.1136 128.41L92.3899 94.6929L94.6357 79.3468L121.18 80.8745Z" fill="#2F2E41"/>
<path d="M107.227 33.8104C111.088 33.8104 114.218 30.6805 114.218 26.8195C114.218 22.9585 111.088 19.8286 107.227 19.8286C103.366 19.8286 100.236 22.9585 100.236 26.8195C100.236 30.6805 103.366 33.8104 107.227 33.8104Z" fill="#FFB8B8"/>
<path d="M113.176 26.3372C112.683 27.5976 112.19 28.8579 111.696 30.1183C111.09 31.6677 110.395 33.3254 108.974 34.1901C107.219 35.2577 104.875 34.7371 103.177 33.5806C101.65 32.5405 100.478 31.0579 99.8179 29.3321C99.158 27.6063 99.0421 25.7199 99.4857 23.9262C99.9292 22.1326 100.911 20.5177 102.299 19.2983C103.687 18.079 105.416 17.3137 107.251 17.1051L107.322 18.3706L108.875 17.069C108.989 17.266 109.147 17.4345 109.337 17.5618C109.526 17.689 109.742 17.7717 109.968 17.8037C110.193 17.8356 110.424 17.8159 110.641 17.7462C110.858 17.6764 111.056 17.5584 111.221 17.4009C110.813 18.2464 111.284 19.2777 111.964 19.9255C112.799 20.7212 115.189 21.6776 115.089 23.1001C115.023 24.0494 113.561 25.3535 113.176 26.3372Z" fill="#2F2E41"/>
<path d="M87.9835 91.2157C87.7425 90.8562 87.5834 90.4483 87.5172 90.0206C87.4509 89.593 87.4793 89.156 87.6002 88.7405C87.7212 88.325 87.9317 87.941 88.2171 87.6157C88.5025 87.2904 88.8557 87.0316 89.2519 86.8575L89.1122 80.0946L93.2013 79.0073L93.2645 88.5607C93.5127 89.2457 93.5011 89.9979 93.2318 90.6749C92.9625 91.3519 92.4542 91.9066 91.8032 92.2338C91.1523 92.5611 90.4039 92.6382 89.6999 92.4506C88.9959 92.2629 88.3852 91.8235 87.9835 91.2157Z" fill="#FFB8B8"/>
<path d="M102.034 38.1311C102.034 38.1311 107.451 35.4224 112.568 37.2282C117.684 39.034 120.393 41.1407 120.393 41.1407L117.082 58.5968L121.597 82.0722C121.597 82.0722 98.4223 80.2664 96.3156 82.0722C94.2088 83.8781 94.2088 79.9655 94.2088 79.9655L96.0146 57.6939L92.704 43.5485L102.034 38.1311Z" fill="#3F3D56"/>
<path d="M124.899 91.6162C124.567 91.3388 124.299 90.992 124.116 90.6001C123.932 90.2083 123.837 89.7809 123.836 89.3482C123.836 88.9154 123.93 88.4878 124.112 88.0954C124.295 87.7031 124.561 87.3555 124.893 87.0772L122.86 80.6255L126.479 78.434L129.222 87.5853C129.653 88.173 129.853 88.8983 129.784 89.6237C129.716 90.349 129.384 91.0241 128.851 91.521C128.318 92.0178 127.621 92.3019 126.893 92.3195C126.165 92.337 125.455 92.0868 124.899 91.6162Z" fill="#FFB8B8"/>
<path d="M118.286 41.1407H120.393C120.393 41.1407 123.704 43.2475 123.704 46.2572C123.704 49.2668 128.519 84.48 128.519 84.48L123.403 85.3829L118.888 60.7036L115.577 54.0823L118.286 41.1407Z" fill="#3F3D56"/>
<path d="M98.4223 43.5485H92.704C92.704 43.5485 90.8981 45.3543 89.9953 49.5679C89.0924 53.7814 88.1895 70.3346 88.1895 70.3346L88.7914 85.3829H93.3059L93.9078 65.8201L96.9175 53.1795L98.4223 43.5485Z" fill="#3F3D56"/>
</g>
<defs>
<clipPath id="clip0_36_297">
<rect width="215.603" height="145" fill="white"/>
</clipPath>
</defs>
</svg>
