<svg width="774" height="545" viewBox="0 0 774 545" fill="none" xmlns="http://www.w3.org/2000/svg">
<g clip-path="url(#clip0_36_67)">
<path d="M394.968 543.845C418.228 543.845 437.083 524.989 437.083 501.729C437.083 478.469 418.228 459.613 394.968 459.613C371.708 459.613 352.852 478.469 352.852 501.729C352.852 524.989 371.708 543.845 394.968 543.845Z" fill="#0D5474"/>
<path d="M646.571 541.479C670.132 534.402 695.182 527.024 713.868 510.202C730.565 495.17 741.838 472.216 734.921 449.673C728.017 427.176 707.34 412.175 685.991 404.714C673.883 400.482 661.216 398.134 648.553 396.29C634.787 394.285 620.961 392.643 607.142 391.062C551.184 384.662 495.016 380.752 438.638 379.333C410.819 378.632 383.005 378.649 355.182 379.053C330.334 379.414 304.165 379.405 281.114 368.844C263.188 360.632 246.919 345.69 241.924 326.056C236.159 303.392 246.793 280.311 262.048 263.897C270.089 255.245 279.487 247.963 289.182 241.267C299.7 234.002 310.584 227.253 321.704 220.952C343.605 208.549 366.502 197.993 390.158 189.394C401.827 185.151 413.67 181.49 425.615 178.113C435.702 175.261 445.82 172.405 455.569 168.52C474.414 161.009 492.339 148.286 497.13 127.428C501.672 107.66 494.015 86.1999 480.591 71.5143C465.06 54.5242 441.643 47.0763 419.193 45.8712C393.989 44.5183 369.366 50.8263 345.676 58.8318C320.409 67.3704 295.688 77.1882 269.887 84.1043C244.303 90.9558 218.223 95.8036 191.885 98.6037C178.992 99.9766 165.709 101.527 152.739 100.476C141.869 99.5949 131.055 96.3981 123.043 88.6836C116.174 82.0689 112.083 72.9781 113.489 63.3844C113.745 61.642 116.392 62.3828 116.138 64.1146C114.425 75.7928 122.364 86.5538 132.146 92.0661C143.451 98.4369 157.208 98.4456 169.795 97.717C197.087 96.0686 224.195 92.15 250.836 86.0018C277.014 80.0226 302.258 71.4752 327.472 62.3445C351.42 53.6727 375.903 45.209 401.487 43.3307C423.686 41.7009 447.037 44.935 466.377 56.536C483.373 66.7317 495.871 83.7349 499.854 103.246C503.745 122.313 498.356 141.503 483.923 154.808C468.98 168.584 448.49 174.474 429.395 179.898C405.176 186.778 381.477 194.82 358.537 205.262C335.285 215.816 312.985 228.353 291.884 242.734C271.516 256.653 251.416 274.166 244.974 298.997C241.973 310.563 242.527 322.831 247.548 333.756C252.012 343.47 259.365 351.641 267.93 357.944C288.366 372.981 314.123 376.069 338.808 376.376C366.532 376.721 394.258 375.785 421.991 376.24C478.511 377.168 534.916 380.608 591.205 386.561C605.309 388.054 619.396 389.704 633.465 391.512C646.119 393.138 658.816 394.753 671.258 397.641C693.38 402.776 714.906 412.649 728.656 431.405C734.759 439.535 738.539 449.17 739.595 459.28C740.557 469.831 737.974 480.402 733.204 489.788C722.645 510.562 702.868 523.776 681.865 532.457C670.616 537.107 658.947 540.63 647.301 544.127C645.604 544.637 644.879 541.987 646.571 541.479L646.571 541.479Z" fill="#F2F2F2"/>
<path d="M115.263 85.6053C127.399 85.6053 137.236 75.7674 137.236 63.6317C137.236 51.4961 127.399 41.6582 115.263 41.6582C103.127 41.6582 93.2894 51.4961 93.2894 63.6317C93.2894 75.7674 103.127 85.6053 115.263 85.6053Z" fill="#F2F2F2"/>
<path d="M267.704 127.263C279.84 127.263 289.678 117.426 289.678 105.29C289.678 93.1542 279.84 83.3163 267.704 83.3163C255.569 83.3163 245.731 93.1542 245.731 105.29C245.731 117.426 255.569 127.263 267.704 127.263Z" fill="#F2F2F2"/>
<path d="M396.799 43.9471C408.934 43.9471 418.772 34.1092 418.772 21.9735C418.772 9.83789 408.934 0 396.799 0C384.663 0 374.825 9.83789 374.825 21.9735C374.825 34.1092 384.663 43.9471 396.799 43.9471Z" fill="#F2F2F2"/>
<path d="M477.368 137.335C489.504 137.335 499.342 127.497 499.342 115.361C499.342 103.225 489.504 93.3876 477.368 93.3876C465.233 93.3876 455.395 103.225 455.395 115.361C455.395 127.497 465.233 137.335 477.368 137.335Z" fill="#F2F2F2"/>
<path d="M368.416 245.371C380.552 245.371 390.39 235.533 390.39 223.398C390.39 211.262 380.552 201.424 368.416 201.424C356.281 201.424 346.443 211.262 346.443 223.398C346.443 235.533 356.281 245.371 368.416 245.371Z" fill="#F2F2F2"/>
<path d="M230.166 297.558C242.302 297.558 252.14 287.72 252.14 275.585C252.14 263.449 242.302 253.611 230.166 253.611C218.03 253.611 208.193 263.449 208.193 275.585C208.193 287.72 218.03 297.558 230.166 297.558Z" fill="#F2F2F2"/>
<path d="M376.656 379.043C388.792 379.043 398.63 369.206 398.63 357.07C398.63 344.934 388.792 335.096 376.656 335.096C364.521 335.096 354.683 344.934 354.683 357.07C354.683 369.206 364.521 379.043 376.656 379.043Z" fill="#F2F2F2"/>
<path d="M534.133 424.822C546.269 424.822 556.107 414.984 556.107 402.848C556.107 390.713 546.269 380.875 534.133 380.875C521.998 380.875 512.16 390.713 512.16 402.848C512.16 414.984 521.998 424.822 534.133 424.822Z" fill="#F2F2F2"/>
<path d="M718.162 414.75C730.297 414.75 740.135 404.913 740.135 392.777C740.135 380.641 730.297 370.803 718.162 370.803C706.026 370.803 696.188 380.641 696.188 392.777C696.188 404.913 706.026 414.75 718.162 414.75Z" fill="#F2F2F2"/>
<path d="M390.456 62.2615C324.635 62.7264 270.741 116.216 269.806 182.032C269.797 182.64 269.793 186.913 269.794 192.501C269.794 200.695 273.049 208.553 278.843 214.347C284.636 220.141 292.494 223.397 300.688 223.398H300.688C304.75 223.397 308.772 222.595 312.524 221.04C316.276 219.484 319.685 217.204 322.555 214.33C325.426 211.457 327.702 208.045 329.254 204.292C330.805 200.538 331.602 196.515 331.599 192.454C331.596 188.652 331.594 186.021 331.594 185.859C331.592 175.688 334.237 165.69 339.271 156.851C344.304 148.012 351.552 140.635 360.301 135.447C369.05 130.258 378.999 127.437 389.17 127.26C399.34 127.083 409.381 129.556 418.306 134.437C427.23 139.317 434.731 146.437 440.069 155.096C445.407 163.754 448.399 173.653 448.751 183.819C449.104 193.985 446.803 204.067 442.077 213.074C437.35 222.081 430.361 229.703 421.795 235.189L421.806 235.202C421.806 235.202 377.833 263.511 364.427 302.346L364.438 302.349C362.081 310.304 360.886 318.559 360.892 326.856C360.892 330.267 361.092 360.111 361.48 384.333C361.616 392.691 365.031 400.66 370.99 406.522C376.949 412.384 384.974 415.668 393.333 415.666H393.333C397.533 415.666 401.691 414.835 405.569 413.222C409.447 411.608 412.967 409.244 415.928 406.265C418.889 403.286 421.231 399.751 422.82 395.863C424.41 391.975 425.215 387.811 425.189 383.612C425.054 361.428 424.981 335.598 424.981 333.723C424.981 309.877 447.985 286.118 466.881 270.625C488.64 252.783 504.298 228.469 510.587 201.043C511.979 195.396 512.746 189.614 512.875 183.799C512.875 167.765 509.702 151.888 503.539 137.085C497.376 122.282 488.345 108.844 476.966 97.547C465.587 86.2497 452.084 77.3157 437.237 71.2597C422.39 65.2038 406.491 62.1456 390.456 62.2615Z" fill="#0D5474"/>
<path d="M772.264 545H1.09014C0.80156 544.999 0.525093 544.884 0.321333 544.68C0.117573 544.475 0.00314331 544.198 0.00314331 543.91C0.00314331 543.621 0.117573 543.344 0.321333 543.14C0.525093 542.936 0.80156 542.82 1.09014 542.82H772.264C772.553 542.82 772.83 542.934 773.035 543.139C773.239 543.343 773.354 543.621 773.354 543.91C773.354 544.199 773.239 544.476 773.035 544.681C772.83 544.885 772.553 545 772.264 545Z" fill="#3F3D56"/>
<path d="M575.385 249.945C590.555 249.945 602.852 237.648 602.852 222.478C602.852 207.309 590.555 195.011 575.385 195.011C560.215 195.011 547.918 207.309 547.918 222.478C547.918 237.648 560.215 249.945 575.385 249.945Z" fill="#2F2E41"/>
<path d="M524.629 532.976H513.405L508.065 489.681H524.632L524.629 532.976Z" fill="#A0616A"/>
<path d="M505.387 529.769H527.034V543.399H491.757C491.757 541.609 492.11 539.836 492.795 538.183C493.48 536.529 494.484 535.027 495.749 533.761C497.015 532.495 498.518 531.491 500.171 530.807C501.825 530.122 503.597 529.769 505.387 529.769Z" fill="#2F2E41"/>
<path d="M611.608 532.976H600.384L595.043 489.681H611.61L611.608 532.976Z" fill="#A0616A"/>
<path d="M592.366 529.769H614.013V543.399H578.736C578.736 541.609 579.088 539.836 579.773 538.183C580.458 536.529 581.462 535.027 582.728 533.761C583.993 532.495 585.496 531.491 587.15 530.807C588.803 530.122 590.576 529.769 592.366 529.769Z" fill="#2F2E41"/>
<path d="M571.211 250.106C583.63 250.106 593.698 240.038 593.698 227.618C593.698 215.199 583.63 205.131 571.211 205.131C558.792 205.131 548.724 215.199 548.724 227.618C548.724 240.038 558.792 250.106 571.211 250.106Z" fill="#A0616A"/>
<path d="M584.614 322.65L594.676 299.532C597.119 294.109 597.82 288.061 596.68 282.223C595.54 276.384 592.617 271.044 588.313 266.938C587.429 266.064 586.49 265.248 585.502 264.493C580.537 260.61 574.419 258.493 568.115 258.478C563.877 258.495 559.693 259.425 555.847 261.207C555.517 261.353 555.197 261.509 554.867 261.664C554.235 261.966 553.613 262.296 553.009 262.635C549.067 264.898 545.713 268.056 543.216 271.854C540.719 275.651 539.149 279.983 538.634 284.499L534.193 321.707C533.077 324.628 493.231 430.101 507.166 510.625C507.315 511.484 507.734 512.274 508.363 512.879C508.993 513.484 509.799 513.871 510.664 513.985L524.791 515.907C525.823 516.048 526.869 515.794 527.72 515.194C528.571 514.594 529.164 513.694 529.378 512.675L553.082 399.686C553.23 398.984 553.608 398.351 554.158 397.89C554.707 397.429 555.395 397.165 556.112 397.14C556.829 397.116 557.534 397.333 558.113 397.756C558.692 398.179 559.113 398.785 559.308 399.475L592.799 518.297C593.038 519.16 593.553 519.922 594.266 520.464C594.978 521.006 595.849 521.3 596.745 521.3C597.012 521.298 597.279 521.274 597.542 521.227L614.8 517.903C615.803 517.716 616.7 517.16 617.315 516.345C617.93 515.531 618.218 514.516 618.124 513.499C615.587 485.218 602.11 343.552 584.614 322.65Z" fill="#2F2E41"/>
<path d="M483.82 246.332C483.664 247.669 483.803 249.024 484.227 250.301C484.651 251.579 485.35 252.748 486.275 253.726C487.2 254.704 488.328 255.467 489.58 255.962C490.831 256.457 492.176 256.671 493.52 256.59L506.089 286.796L515.597 272.702L502.203 246.178C501.917 243.93 500.817 241.865 499.11 240.374C497.403 238.884 495.209 238.071 492.943 238.09C490.677 238.109 488.497 238.958 486.815 240.478C485.134 241.997 484.068 244.08 483.82 246.332L483.82 246.332Z" fill="#A0616A"/>
<path d="M569.964 353.066C571.3 352.906 572.586 352.455 573.729 351.745C574.872 351.035 575.846 350.083 576.582 348.955C577.317 347.828 577.797 346.553 577.986 345.221C578.176 343.888 578.071 342.53 577.679 341.243L604.126 321.981L588.204 316.018L565.53 335.224C563.411 336.026 561.659 337.577 560.607 339.584C559.555 341.592 559.276 343.915 559.822 346.114C560.369 348.313 561.703 350.236 563.572 351.517C565.442 352.798 567.716 353.349 569.964 353.066Z" fill="#A0616A"/>
<path d="M526.852 306.934C525.838 306.934 524.826 306.834 523.832 306.637C521.426 306.179 519.17 305.136 517.263 303.601C515.355 302.066 513.855 300.085 512.893 297.833L495.283 276.36C494.911 275.906 494.64 275.377 494.488 274.81C494.337 274.243 494.308 273.65 494.404 273.071C494.501 272.491 494.72 271.94 495.047 271.452C495.374 270.964 495.801 270.552 496.3 270.243L508.829 262.488C509.292 262.201 509.806 262.009 510.343 261.923C510.881 261.836 511.43 261.857 511.959 261.984C512.488 262.111 512.986 262.341 513.426 262.662C513.865 262.982 514.237 263.387 514.52 263.852L526.931 284.3L550.7 266.734C552.593 265.741 554.779 265.463 556.86 265.95C558.941 266.436 560.777 267.655 562.033 269.384C563.29 271.112 563.882 273.235 563.703 275.365C563.523 277.494 562.583 279.488 561.055 280.981L537.331 302.622C534.544 305.386 530.777 306.936 526.852 306.934Z" fill="#2F2E41"/>
<path d="M591.078 339.229C591.046 339.229 591.014 339.229 590.982 339.228C590.404 339.214 589.835 339.078 589.313 338.831C588.791 338.583 588.327 338.229 587.95 337.79L576.811 324.795C576.432 324.353 576.151 323.835 575.986 323.275C575.822 322.716 575.778 322.128 575.858 321.551C575.938 320.973 576.139 320.419 576.448 319.926C576.758 319.432 577.169 319.009 577.654 318.686L598.512 304.781L579.616 282.063C578.517 280.231 578.114 278.064 578.48 275.959C578.847 273.853 579.958 271.95 581.612 270.597C583.266 269.244 585.351 268.531 587.487 268.588C589.623 268.645 591.668 269.469 593.246 270.909L616.212 293.352C618.019 295.003 619.399 297.068 620.233 299.37C621.067 301.672 621.329 304.142 620.998 306.567C620.667 308.993 619.753 311.302 618.333 313.297C616.913 315.291 615.031 316.911 612.847 318.018L594.077 337.935C593.691 338.343 593.227 338.669 592.711 338.891C592.195 339.113 591.64 339.228 591.078 339.229Z" fill="#2F2E41"/>
<path d="M565.493 291.346C565.314 291.346 565.136 291.334 564.958 291.312C564.183 291.217 563.45 290.902 562.848 290.404C562.246 289.906 561.799 289.246 561.561 288.502L553.191 262.839C552.981 262.191 553.013 261.488 553.282 260.861C553.55 260.234 554.036 259.726 554.65 259.429L554.922 259.301C555.168 259.184 555.412 259.068 555.661 258.957C559.564 257.147 563.813 256.203 568.115 256.189C573.701 256.2 579.162 257.841 583.828 260.911C584.453 261.327 584.89 261.972 585.045 262.708C585.199 263.443 585.058 264.21 584.653 264.843L568.951 289.442C568.583 290.026 568.072 290.507 567.468 290.84C566.863 291.173 566.183 291.347 565.493 291.346Z" fill="#E6E6E6"/>
<path d="M597.04 210.216C602.004 210.216 606.028 206.192 606.028 201.228C606.028 196.264 602.004 192.24 597.04 192.24C592.076 192.24 588.053 196.264 588.053 201.228C588.053 206.192 592.076 210.216 597.04 210.216Z" fill="#2F2E41"/>
<path d="M566.229 191.349C559.916 191.349 553.861 193.857 549.397 198.321C544.933 202.786 542.425 208.84 542.425 215.154V225.225H554.812L560.736 215.154L562.514 225.225H600.105L590.034 215.154C590.034 208.84 587.526 202.786 583.062 198.321C578.598 193.857 572.543 191.349 566.229 191.349Z" fill="#2F2E41"/>
<path d="M601.659 195.072C602.653 191.964 604.711 189.306 607.471 187.565C610.231 185.825 613.516 185.112 616.749 185.554C622.476 186.512 627.005 191.116 629.703 196.258C632.402 201.4 633.648 207.156 635.462 212.672C637.276 218.189 639.848 223.736 644.428 227.307C649.007 230.878 656.035 231.846 660.532 228.173C660.018 232.001 658.314 235.571 655.66 238.378C653.006 241.185 649.537 243.086 645.743 243.813C641.949 244.54 638.023 244.056 634.519 242.429C631.016 240.802 628.112 238.115 626.22 234.748C623.846 230.525 623.234 225.577 622.53 220.784C621.826 215.992 620.912 211.034 618.078 207.105C615.245 203.177 609.941 200.611 605.44 202.401L601.659 195.072Z" fill="#2F2E41"/>
<path d="M309.412 208.784C301.218 208.783 293.36 205.527 287.566 199.733C281.772 193.939 278.517 186.081 278.517 177.887C278.516 172.299 278.52 168.026 278.529 167.418C278.789 148.277 283.61 129.474 292.591 112.568C277.835 132.768 269.722 157.054 269.373 182.067C269.365 182.675 269.361 186.948 269.361 192.536C269.361 200.73 272.617 208.588 278.41 214.382C284.204 220.176 292.062 223.432 300.256 223.433C306.989 223.43 313.537 221.23 318.906 217.166C324.274 213.103 328.17 207.398 330.001 200.918C324.343 205.991 317.01 208.793 309.412 208.784Z" fill="#3F3D56"/>
<path d="M392.55 127.363C402.023 127.816 411.244 130.56 419.422 135.362C427.601 140.163 434.491 146.877 439.503 154.928C444.515 162.979 447.498 172.126 448.196 181.584C448.893 191.042 447.285 200.527 443.51 209.227C448.971 202.813 452.985 195.297 455.278 187.191C457.572 179.085 458.09 170.58 456.798 162.256C455.506 153.932 452.435 145.984 447.793 138.954C443.151 131.924 437.048 125.978 429.9 121.521C422.752 117.064 414.727 114.2 406.372 113.126C398.017 112.051 389.528 112.791 381.485 115.294C373.441 117.798 366.032 122.006 359.763 127.632C353.493 133.259 348.511 140.171 345.155 147.897C350.955 141.074 358.245 135.674 366.462 132.114C374.68 128.554 383.605 126.928 392.55 127.363Z" fill="#3F3D56"/>
<path d="M402.056 401.052C393.697 401.054 385.672 397.77 379.714 391.908C373.755 386.046 370.339 378.077 370.203 369.719C369.816 345.497 369.615 315.653 369.615 312.242C369.609 303.945 370.804 295.69 373.161 287.735L373.15 287.732C374.542 283.739 376.223 279.852 378.18 276.103C372.173 284.109 367.392 292.966 363.995 302.381L364.006 302.384C361.648 310.339 360.454 318.594 360.459 326.891C360.459 330.302 360.66 360.146 361.048 384.368C361.183 392.726 364.599 400.695 370.558 406.557C376.517 412.419 384.541 415.703 392.9 415.701C399.792 415.7 406.498 413.464 412.012 409.329C417.525 405.195 421.55 399.383 423.482 392.768C417.625 398.108 409.982 401.063 402.056 401.052Z" fill="#3F3D56"/>
<path d="M115.856 533.394L127.08 533.393L132.421 490.098L115.854 490.099L115.856 533.394Z" fill="#FFB8B8"/>
<path d="M148.728 543.815L113.451 543.817L113.45 530.187L135.098 530.186C138.713 530.186 142.18 531.621 144.736 534.177C147.292 536.733 148.728 540.2 148.728 543.815L148.728 543.815Z" fill="#2F2E41"/>
<path d="M75.5715 533.394L86.7954 533.393L92.1359 490.098L75.5688 490.099L75.5715 533.394Z" fill="#FFB8B8"/>
<path d="M108.444 543.815L73.1663 543.817L73.1657 530.187L94.8132 530.186C98.428 530.186 101.895 531.621 104.451 534.177C107.007 536.733 108.443 540.2 108.444 543.815L108.444 543.815Z" fill="#2F2E41"/>
<path d="M85.3802 520.078L74.4164 519.502C73.851 519.472 73.2972 519.33 72.787 519.085C72.2767 518.84 71.8203 518.496 71.444 518.073C71.0677 517.65 70.7791 517.156 70.5949 516.621C70.4107 516.085 70.3346 515.519 70.3709 514.954L83.4751 369.868L143.821 386.152L149.635 384.566L131.453 513.006C131.298 513.972 130.819 514.856 130.093 515.513C129.368 516.17 128.44 516.559 127.463 516.617L115.644 517.168C115.053 517.201 114.462 517.111 113.908 516.903C113.353 516.696 112.848 516.376 112.424 515.963C111.999 515.55 111.665 515.054 111.442 514.506C111.219 513.957 111.113 513.369 111.129 512.777L113.271 435.69C113.281 435.334 113.157 434.986 112.923 434.717C112.69 434.447 112.364 434.274 112.01 434.233C111.656 434.192 111.299 434.284 111.01 434.493C110.721 434.702 110.52 435.011 110.448 435.36L89.7955 516.674C89.6005 517.639 89.077 518.506 88.3142 519.128C87.5513 519.75 86.5964 520.088 85.6121 520.085C85.5353 520.085 85.458 520.083 85.3802 520.078Z" fill="#2F2E41"/>
<path d="M117.871 251.157C130.291 251.157 140.359 241.09 140.359 228.67C140.359 216.251 130.291 206.183 117.871 206.183C105.452 206.183 95.3843 216.251 95.3843 228.67C95.3843 241.09 105.452 251.157 117.871 251.157Z" fill="#FFB8B8"/>
<path d="M80.4319 294.736L82.9045 348.084L83.7983 367.492C83.8339 368.337 84.1208 369.152 84.6222 369.833C85.1236 370.514 85.8168 371.03 86.613 371.315L144.601 392.321C145.07 392.496 145.566 392.583 146.066 392.578C146.637 392.581 147.203 392.469 147.729 392.248C148.256 392.027 148.733 391.702 149.132 391.293C149.53 390.884 149.842 390.399 150.049 389.866C150.256 389.334 150.353 388.765 150.336 388.194L147.958 292.273C147.802 284.404 144.905 276.835 139.767 270.872C134.628 264.909 127.571 260.926 119.81 259.609C119.249 259.523 118.679 259.438 118.108 259.361C113.296 258.764 108.412 259.228 103.798 260.722C99.1849 262.215 94.9549 264.701 91.4058 268.005C87.7307 271.386 84.843 275.532 82.9467 280.151C81.0505 284.77 80.192 289.749 80.4319 294.736L80.4319 294.736Z" fill="#CCCCCC"/>
<path d="M172.302 381.676C170.93 381.251 169.677 380.511 168.643 379.515C167.608 378.519 166.821 377.295 166.343 375.94C165.866 374.586 165.711 373.139 165.893 371.714C166.074 370.29 166.585 368.927 167.387 367.736L147.722 341.587L164.691 340.537L180.764 365.529C182.484 366.859 183.681 368.753 184.145 370.878C184.609 373.003 184.31 375.223 183.301 377.149C182.291 379.076 180.636 380.585 178.625 381.413C176.614 382.241 174.375 382.334 172.302 381.676H172.302Z" fill="#FFB8B8"/>
<path d="M158.476 363.004C157.955 362.792 157.481 362.48 157.082 362.084C156.682 361.688 156.365 361.217 156.149 360.698L126.523 290.113C125.942 288.731 125.639 287.248 125.631 285.749C125.623 284.25 125.911 282.763 126.477 281.375C127.044 279.987 127.879 278.725 128.934 277.659C129.989 276.594 131.243 275.747 132.626 275.167C134.008 274.587 135.491 274.284 136.99 274.278C138.49 274.271 139.976 274.56 141.363 275.128C142.751 275.695 144.013 276.531 145.077 277.587C146.142 278.643 146.988 279.898 147.567 281.281L177.193 351.866C177.631 352.913 177.636 354.09 177.207 355.141C176.777 356.191 175.949 357.028 174.904 357.468L161.751 362.988C161.233 363.207 160.677 363.321 160.115 363.324C159.553 363.327 158.996 363.218 158.476 363.004L158.476 363.004Z" fill="#CCCCCC"/>
<path d="M110.642 360.514L139.097 306.03C139.645 304.982 140.587 304.195 141.716 303.84C142.845 303.486 144.067 303.594 145.116 304.141L186.419 325.711C187.467 326.26 188.254 327.202 188.608 328.331C188.963 329.459 188.855 330.682 188.308 331.731L159.853 386.215C159.304 387.263 158.362 388.05 157.234 388.405C156.105 388.759 154.882 388.651 153.833 388.105L112.531 366.534C111.483 365.985 110.696 365.043 110.342 363.914C109.987 362.786 110.095 361.563 110.642 360.514Z" fill="#3F3D56"/>
<path d="M129.725 335.621C129.219 334.277 128.406 333.07 127.351 332.096C126.295 331.122 125.027 330.409 123.647 330.012C122.267 329.615 120.813 329.547 119.402 329.811C117.99 330.076 116.66 330.668 115.518 331.538L88.2538 313.452L88.2075 330.453L114.105 345.022C115.535 346.661 117.496 347.744 119.644 348.082C121.793 348.42 123.991 347.99 125.855 346.869C127.718 345.747 129.127 344.005 129.835 341.949C130.543 339.892 130.504 337.652 129.725 335.621Z" fill="#FFB8B8"/>
<path d="M95.2537 339.445L72.9718 321.795C70.5614 320.986 68.3833 319.603 66.6246 317.767C64.866 315.93 63.5792 313.695 62.8748 311.251C62.1704 308.808 62.0694 306.231 62.5804 303.74C63.0915 301.249 64.1994 298.919 65.809 296.951L86.0403 270.437C87.4462 268.719 89.4235 267.564 91.6106 267.184C93.7977 266.804 96.0486 267.223 97.9519 268.366C99.8552 269.508 101.284 271.298 101.976 273.407C102.669 275.516 102.579 277.804 101.724 279.853L85.716 306.038L109.24 317.196C109.788 317.455 110.273 317.828 110.666 318.289C111.058 318.75 111.348 319.289 111.517 319.87C111.685 320.452 111.729 321.062 111.644 321.662C111.559 322.261 111.348 322.836 111.024 323.348L101.528 338.376C101.207 338.883 100.783 339.317 100.284 339.65C99.7843 339.983 99.2205 340.208 98.6288 340.309C98.6053 340.313 98.5817 340.316 98.5581 340.32C97.9767 340.408 97.3835 340.375 96.8152 340.225C96.2468 340.074 95.7154 339.809 95.2537 339.445Z" fill="#CCCCCC"/>
<path d="M100.88 243.728C100.783 243.446 100.753 243.145 100.79 242.849C100.828 242.553 100.933 242.27 101.097 242.021C101.261 241.772 101.48 241.563 101.737 241.412C101.994 241.26 102.282 241.17 102.579 241.147C103.188 241.18 103.784 241.336 104.331 241.606C104.878 241.876 105.365 242.254 105.762 242.717C106.576 243.655 107.523 244.469 108.574 245.132C109.662 245.68 111.137 245.602 111.757 244.556C112.339 243.575 111.94 242.26 111.588 241.12C110.691 238.219 110.189 235.21 110.095 232.175C109.994 228.787 110.472 225.251 112.347 222.609C114.768 219.199 119.096 217.904 123.193 217.998C127.289 218.092 131.319 219.356 135.376 220.155C136.777 220.431 138.424 220.572 139.36 219.487C140.357 218.332 139.991 216.464 139.567 214.906C138.467 210.861 137.301 206.68 134.746 203.413C131.984 200.019 128.038 197.798 123.704 197.196C119.542 196.681 115.318 197.16 111.378 198.596C104.959 200.619 99.3107 204.554 95.1884 209.874C90.939 215.532 89.1028 222.642 90.0813 229.651C91.0373 235.754 94.2716 241.269 99.1324 245.082L100.88 243.728Z" fill="#2F2E41"/>
<path d="M385.689 533.572C379.706 530.967 374.41 527.006 370.22 522.003C366.03 517 363.06 511.092 361.545 504.745C360.029 498.398 360.009 491.785 361.487 485.429C362.965 479.073 365.899 473.147 370.06 468.12C365.236 471.641 361.217 476.149 358.269 481.342C355.321 486.536 353.511 492.297 352.96 498.244C352.408 504.191 353.128 510.186 355.071 515.834C357.014 521.481 360.136 526.65 364.229 530.998C368.323 535.347 373.295 538.775 378.814 541.055C384.334 543.335 390.276 544.415 396.245 544.224C402.214 544.032 408.074 542.573 413.436 539.943C418.798 537.314 423.539 533.574 427.345 528.972C421.409 533.311 414.439 536.019 407.13 536.826C399.822 537.633 392.429 536.511 385.689 533.572Z" fill="#3F3D56"/>
</g>
<defs>
<clipPath id="clip0_36_67">
<rect width="773.354" height="545" fill="white"/>
</clipPath>
</defs>
</svg>
