<svg width="315" height="145" viewBox="0 0 315 145" fill="none" xmlns="http://www.w3.org/2000/svg">
<g clip-path="url(#clip0_36_230)">
<path d="M66.656 136.931C59.1303 132.027 53.6585 123.211 54.7784 114.299C61.5548 121.335 70.6014 125.747 80.3176 126.754C84.0661 127.13 88.2744 127.156 90.9365 129.822C92.5929 131.481 93.2967 133.905 93.3329 136.249C93.3691 138.593 92.8059 140.9 92.2464 143.176L92.3839 143.745C83.4074 143.413 74.1816 141.836 66.656 136.931Z" fill="#F0F0F0"/>
<path d="M54.9669 114.297C57.7821 121.178 62.6939 126.998 69.0048 130.929C70.3484 131.799 71.8208 132.453 73.3678 132.864C74.8877 133.217 76.4742 133.156 77.9626 132.688C79.3592 132.28 80.7404 131.7 82.212 131.638C82.9657 131.618 83.7152 131.757 84.4114 132.046C85.1076 132.336 85.7348 132.769 86.2517 133.318C87.5755 134.652 88.3408 136.382 89.0305 138.1C89.7963 140.008 90.5615 142.001 92.1211 143.414C92.3101 143.585 92.0334 143.868 91.8447 143.697C89.1313 141.239 88.8326 137.296 86.6997 134.444C85.7045 133.113 84.3022 132.074 82.5879 132.031C81.0888 131.992 79.664 132.589 78.2535 133.014C76.8082 133.492 75.2679 133.609 73.7671 133.354C72.2042 133.023 70.7091 132.427 69.3459 131.594C66.247 129.767 63.4547 127.463 61.0712 124.769C58.3339 121.708 56.1402 118.202 54.5852 114.402C54.4891 114.167 54.8714 114.063 54.9669 114.297H54.9669Z" fill="white"/>
<path d="M66.8983 129.783C66.095 130.752 64.9733 131.404 63.7336 131.623C62.4938 131.842 61.2167 131.612 60.1303 130.976C59.9109 130.847 60.1018 130.5 60.3215 130.63C61.332 131.224 62.5217 131.437 63.6757 131.231C64.8297 131.025 65.8722 130.413 66.6148 129.506C66.7764 129.309 67.059 129.587 66.8983 129.783V129.783Z" fill="white"/>
<path d="M77.2818 132.988C77.0648 130.424 75.8892 128.036 73.9896 126.3C73.8012 126.128 74.0778 125.845 74.266 126.016C76.2394 127.827 77.4577 130.314 77.6777 132.983C77.6985 133.238 77.3025 133.241 77.2818 132.988Z" fill="white"/>
<path d="M58.8319 121.543C59.2209 121.232 59.5267 120.83 59.7218 120.373C59.917 119.915 59.9955 119.416 59.9502 118.92C59.9262 118.666 60.3222 118.663 60.346 118.915C60.3935 119.463 60.3062 120.014 60.0917 120.52C59.8772 121.026 59.542 121.472 59.1154 121.819C59.0779 121.855 59.0281 121.875 58.9761 121.876C58.9241 121.877 58.8738 121.858 58.8355 121.823C58.7981 121.786 58.7768 121.736 58.7761 121.683C58.7755 121.631 58.7955 121.58 58.8319 121.543Z" fill="white"/>
<path d="M80.4489 97.9892C80.4684 98.1474 80.4879 98.3056 80.5103 98.4653C80.7835 100.591 81.2289 102.69 81.8422 104.743C81.8871 104.903 81.9349 105.064 81.9843 105.222C83.5144 110.152 85.9467 114.756 89.1575 118.799C90.4366 120.407 91.8361 121.915 93.344 123.31C95.4266 125.237 97.838 127.16 99.1245 129.591C99.2616 129.843 99.3829 130.103 99.4878 130.37L93.0672 143.533C93.0376 143.555 93.0109 143.58 92.9813 143.602L92.7489 144.14C92.6661 144.073 92.5817 144.002 92.4989 143.936C92.4507 143.897 92.404 143.856 92.3558 143.818C92.3241 143.791 92.2925 143.764 92.2624 143.742C92.2518 143.734 92.2413 143.725 92.2337 143.717C92.2036 143.695 92.178 143.671 92.1509 143.651C91.6778 143.256 91.2067 142.858 90.7375 142.456C90.7345 142.454 90.7345 142.454 90.7329 142.45C87.1656 139.375 83.8238 135.975 81.1041 132.177C81.0223 132.062 80.9375 131.947 80.8586 131.826C79.6422 130.107 78.5684 128.291 77.6478 126.397C77.147 125.359 76.6992 124.295 76.306 123.211C75.2954 120.408 74.732 117.464 74.6363 114.486C74.4466 108.549 76.1577 102.618 80.1413 98.315C80.2433 98.2049 80.3439 98.0977 80.4489 97.9892Z" fill="#F0F0F0"/>
<path d="M80.6014 98.1003C78.706 105.29 79.124 112.894 81.7962 119.832C82.3449 121.336 83.1273 122.744 84.1145 124.004C85.1158 125.201 86.4193 126.107 87.8894 126.63C89.2505 127.144 90.7022 127.513 91.9144 128.35C92.5286 128.787 93.0433 129.349 93.4249 130C93.8065 130.65 94.0463 131.374 94.1286 132.123C94.3823 133.985 93.9518 135.827 93.4681 137.614C92.9311 139.598 92.3419 141.651 92.7365 143.718C92.7843 143.968 92.3929 144.028 92.3452 143.778C91.6586 140.181 93.7945 136.853 93.8083 133.292C93.8148 131.63 93.3206 129.957 91.9783 128.889C90.8044 127.956 89.3077 127.575 87.9251 127.065C86.4834 126.577 85.1833 125.743 84.1384 124.636C83.0902 123.43 82.2549 122.054 81.6682 120.568C80.2941 117.243 79.4512 113.723 79.1705 110.137C78.8275 106.045 79.1869 101.925 80.2332 97.9546C80.2981 97.7088 80.6658 97.8562 80.6014 98.1003Z" fill="white"/>
<path d="M80.8045 117.648C79.5795 117.939 78.2913 117.784 77.1698 117.212C76.0483 116.64 75.1666 115.689 74.6821 114.527C74.5849 114.291 74.9462 114.129 75.0435 114.365C75.4927 115.448 76.3141 116.334 77.3595 116.865C78.4049 117.395 79.6055 117.534 80.7446 117.257C80.9922 117.197 81.0507 117.589 80.8045 117.648V117.648Z" fill="white"/>
<path d="M87.1651 126.459C88.5356 124.281 89.0349 121.667 88.5633 119.137C88.5164 118.886 88.9078 118.827 88.9546 119.077C89.4405 121.711 88.9154 124.43 87.4842 126.694C87.3476 126.909 87.0293 126.674 87.1651 126.459Z" fill="white"/>
<path d="M79.3251 106.213C79.8224 106.199 80.3087 106.062 80.7401 105.814C81.1715 105.566 81.5345 105.215 81.7967 104.792C81.9304 104.575 82.2487 104.811 82.1158 105.027C81.824 105.492 81.4225 105.88 80.9465 106.155C80.4705 106.43 79.9344 106.584 79.385 106.604C79.3334 106.61 79.2813 106.596 79.2394 106.566C79.1975 106.535 79.1689 106.489 79.1594 106.438C79.1517 106.386 79.1648 106.334 79.1958 106.291C79.2269 106.249 79.2733 106.221 79.3251 106.213H79.3251Z" fill="white"/>
<path d="M296.32 136.931C303.845 132.027 309.317 123.211 308.197 114.299C301.421 121.335 292.374 125.747 282.658 126.754C278.91 127.13 274.701 127.156 272.039 129.822C270.383 131.481 269.679 133.905 269.643 136.249C269.607 138.593 270.17 140.9 270.729 143.176L270.592 143.745C279.568 143.413 288.794 141.836 296.32 136.931Z" fill="#F0F0F0"/>
<path d="M308.009 114.297C305.194 121.178 300.282 126.998 293.971 130.929C292.628 131.799 291.155 132.453 289.608 132.864C288.088 133.217 286.502 133.156 285.013 132.688C283.617 132.28 282.236 131.7 280.764 131.638C280.01 131.618 279.261 131.757 278.565 132.046C277.868 132.336 277.241 132.769 276.724 133.318C275.401 134.652 274.635 136.382 273.945 138.1C273.18 140.008 272.414 142.001 270.855 143.414C270.666 143.585 270.943 143.868 271.131 143.697C273.845 141.239 274.143 137.296 276.276 134.444C277.271 133.113 278.674 132.074 280.388 132.031C281.887 131.992 283.312 132.589 284.722 133.014C286.168 133.492 287.708 133.609 289.209 133.354C290.772 133.023 292.267 132.427 293.63 131.594C296.729 129.767 299.521 127.463 301.905 124.769C304.642 121.708 306.836 118.202 308.391 114.402C308.487 114.167 308.105 114.063 308.009 114.297H308.009Z" fill="white"/>
<path d="M296.078 129.783C296.881 130.752 298.003 131.404 299.242 131.623C300.482 131.842 301.759 131.612 302.845 130.976C303.065 130.847 302.874 130.5 302.654 130.63C301.644 131.224 300.454 131.437 299.3 131.231C298.146 131.025 297.104 130.413 296.361 129.506C296.199 129.309 295.917 129.587 296.078 129.783V129.783Z" fill="white"/>
<path d="M285.694 132.988C285.911 130.424 287.087 128.036 288.986 126.3C289.175 126.128 288.898 125.845 288.71 126.016C286.737 127.827 285.518 130.314 285.298 132.983C285.278 133.238 285.674 133.241 285.694 132.988Z" fill="white"/>
<path d="M304.144 121.543C303.755 121.232 303.449 120.83 303.254 120.373C303.059 119.915 302.98 119.416 303.026 118.92C303.05 118.666 302.654 118.663 302.63 118.915C302.582 119.463 302.67 120.014 302.884 120.52C303.099 121.026 303.434 121.472 303.861 121.819C303.898 121.855 303.948 121.875 304 121.876C304.052 121.877 304.102 121.858 304.14 121.823C304.178 121.786 304.199 121.736 304.2 121.683C304.2 121.631 304.18 121.58 304.144 121.543Z" fill="white"/>
<path d="M282.527 97.9892C282.508 98.1474 282.488 98.3056 282.466 98.4653C282.192 100.591 281.747 102.69 281.134 104.743C281.089 104.903 281.041 105.064 280.992 105.222C279.461 110.152 277.029 114.756 273.818 118.799C272.539 120.407 271.14 121.915 269.632 123.31C267.549 125.237 265.138 127.16 263.851 129.591C263.714 129.843 263.593 130.103 263.488 130.37L269.909 143.533C269.938 143.555 269.965 143.58 269.995 143.602L270.227 144.14C270.31 144.073 270.394 144.002 270.477 143.936C270.525 143.897 270.572 143.856 270.62 143.818C270.652 143.791 270.683 143.764 270.714 143.742C270.724 143.733 270.735 143.725 270.742 143.717C270.772 143.695 270.798 143.671 270.825 143.651C271.298 143.256 271.769 142.858 272.238 142.456C272.242 142.454 272.241 142.454 272.243 142.45C275.81 139.375 279.152 135.975 281.872 132.176C281.954 132.062 282.038 131.947 282.117 131.826C283.334 130.107 284.408 128.291 285.328 126.397C285.829 125.359 286.277 124.295 286.67 123.211C287.681 120.408 288.244 117.464 288.34 114.486C288.529 108.549 286.818 102.617 282.835 98.3149C282.733 98.2049 282.632 98.0977 282.527 97.9892Z" fill="#F0F0F0"/>
<path d="M282.374 98.1003C284.27 105.29 283.852 112.894 281.18 119.832C280.631 121.336 279.849 122.744 278.861 124.004C277.86 125.201 276.557 126.107 275.086 126.63C273.725 127.144 272.274 127.513 271.061 128.35C270.447 128.787 269.932 129.349 269.551 130C269.169 130.65 268.929 131.374 268.847 132.123C268.593 133.985 269.024 135.827 269.508 137.614C270.045 139.598 270.634 141.651 270.239 143.718C270.191 143.968 270.583 144.028 270.631 143.778C271.317 140.181 269.181 136.853 269.167 133.292C269.161 131.63 269.655 129.957 270.998 128.889C272.171 127.956 273.668 127.575 275.051 127.065C276.492 126.577 277.792 125.743 278.837 124.636C279.886 123.43 280.721 122.054 281.308 120.568C282.682 117.243 283.525 113.723 283.805 110.137C284.148 106.045 283.789 101.925 282.743 97.9546C282.678 97.7088 282.31 97.8562 282.374 98.1003Z" fill="white"/>
<path d="M282.171 117.648C283.396 117.939 284.685 117.784 285.806 117.212C286.928 116.64 287.809 115.689 288.294 114.527C288.391 114.291 288.03 114.129 287.932 114.365C287.483 115.448 286.662 116.334 285.616 116.865C284.571 117.395 283.37 117.534 282.231 117.257C281.984 117.197 281.925 117.589 282.171 117.648V117.648Z" fill="white"/>
<path d="M275.811 126.459C274.44 124.281 273.941 121.667 274.413 119.137C274.46 118.886 274.068 118.827 274.021 119.077C273.536 121.711 274.061 124.43 275.492 126.694C275.628 126.909 275.947 126.674 275.811 126.459Z" fill="white"/>
<path d="M283.651 106.213C283.154 106.199 282.667 106.062 282.236 105.814C281.804 105.566 281.441 105.215 281.179 104.792C281.045 104.575 280.727 104.811 280.86 105.027C281.152 105.492 281.553 105.88 282.029 106.155C282.505 106.43 283.042 106.584 283.591 106.604C283.643 106.61 283.695 106.596 283.737 106.566C283.778 106.535 283.807 106.489 283.817 106.438C283.824 106.386 283.811 106.334 283.78 106.291C283.749 106.249 283.703 106.221 283.651 106.213H283.651Z" fill="white"/>
<path d="M81.4784 93.6819C81.1936 93.5105 80.9499 93.2788 80.7645 93.003C80.579 92.7273 80.4562 92.4143 80.4048 92.0859C80.3533 91.7576 80.3745 91.422 80.4669 91.1028C80.5592 90.7835 80.7204 90.4884 80.9391 90.2382L76.9359 83.2218L81.125 83.4924L84.2842 90.1138C84.6802 90.5091 84.9174 91.0359 84.951 91.5944C84.9845 92.1529 84.812 92.7043 84.4661 93.1441C84.1203 93.5839 83.6251 93.8816 83.0744 93.9807C82.5238 94.0798 81.9559 93.9735 81.4784 93.6819Z" fill="#FFB6B6"/>
<path d="M50.662 141.514H53.4336L54.752 130.824L50.6616 130.824L50.662 141.514Z" fill="#FFB6B6"/>
<path d="M49.9552 140.609L55.4131 140.609H55.4133C56.3358 140.609 57.2204 140.975 57.8727 141.628C58.525 142.28 58.8915 143.164 58.8915 144.087V144.2L49.9554 144.2L49.9552 140.609Z" fill="#2F2E41"/>
<path d="M69.6509 141.514H72.4222L73.7407 130.824L69.6503 130.824L69.6509 141.514Z" fill="#FFB6B6"/>
<path d="M68.9438 140.609L74.4018 140.609H74.402C75.3244 140.609 76.2091 140.975 76.8614 141.628C77.5136 142.28 77.8801 143.164 77.8802 144.087V144.2L68.944 144.2L68.9438 140.609Z" fill="#2F2E41"/>
<path d="M76.7773 83.5233C76.7773 83.5233 77.5395 94.3788 76.0382 99.846C74.5368 105.313 74.2688 138.375 74.2688 138.375H69.2364L64.8746 93.3707L54.8192 138.534L50.0258 138.204L52.6545 84.9856L76.7773 83.5233Z" fill="#2F2E41"/>
<path d="M54.7341 46.9299L58.5812 44.1225L65.0277 45.5262L66.7728 49.6726L69.7796 51.1634C70.7683 51.6536 71.6232 52.3765 72.2708 53.27C72.9184 54.1636 73.3394 55.201 73.4976 56.2931L77.7933 85.9573L52.6545 84.9855L49.6112 50.0502C49.5794 49.6853 49.6211 49.3177 49.7339 48.9691C49.8467 48.6206 50.0283 48.2983 50.2679 48.0212C50.5074 47.7441 50.8002 47.5179 51.1288 47.3559C51.4573 47.1939 51.815 47.0995 52.1807 47.0783L54.7341 46.9299Z" fill="#3F3D56"/>
<path d="M71.3704 53.4806L73.6922 56.6104L83.805 87.4547L79.0647 89.3525L71.4743 74.9799L71.3704 53.4806Z" fill="#3F3D56"/>
<path d="M62.9539 42.6568C66.0548 42.6568 68.5686 40.143 68.5686 37.042C68.5686 33.9411 66.0548 31.4272 62.9539 31.4272C59.8529 31.4272 57.3391 33.9411 57.3391 37.042C57.3391 40.143 59.8529 42.6568 62.9539 42.6568Z" fill="#FFB9B9"/>
<path opacity="0.1" d="M50.7136 60.1425L59.8761 72.8862L70.1179 79.5648L50.7136 60.1425Z" fill="black"/>
<path d="M59.9783 41.1011C59.5878 40.3213 59.186 39.4725 59.3353 38.6133C59.4845 37.7541 60.4706 37.0054 61.2316 37.4314C61.5473 36.2903 62.945 35.791 64.1216 35.9227C65.2982 36.0544 66.3815 36.6219 67.5401 36.8656C68.6987 37.1092 70.1057 36.9159 70.7319 35.9112L69.2336 35.8852L70.7938 34.0756L68.9853 33.9403C69.6117 33.2642 69.4453 32.1156 68.8389 31.4215C68.2324 30.7274 67.3121 30.399 66.4141 30.1914C64.6215 29.7782 62.7633 29.7354 60.9536 30.0659C60.1003 30.1974 59.2782 30.4835 58.5276 30.9101C57.8207 31.3412 57.2367 31.9469 56.8316 32.669C56.3945 33.4836 56.1582 34.3908 56.1425 35.3151C56.1158 36.5532 56.4003 37.7782 56.9699 38.8778C57.5395 39.9775 58.376 40.9166 59.4027 41.609" fill="#2F2E41"/>
<path d="M269.033 144.344H94.7877C92.9933 144.342 91.2729 143.629 90.0041 142.36C88.7352 141.091 88.0215 139.371 88.0194 137.576V6.7681C88.0215 4.97369 88.7352 3.25337 90.0041 1.98454C91.2729 0.715719 92.9933 0.00201452 94.7877 0H269.033C270.827 0.00204637 272.548 0.715767 273.817 1.98459C275.085 3.25341 275.799 4.97372 275.801 6.7681V137.576C275.799 139.371 275.085 141.091 273.817 142.36C272.548 143.629 270.827 144.342 269.033 144.344Z" fill="#E4E4E4"/>
<path d="M225.179 60.0599H198.281C196.952 60.0599 195.677 59.5318 194.737 58.5919C193.797 57.652 193.269 56.3772 193.269 55.0479C193.269 53.7187 193.797 52.4438 194.737 51.5039C195.677 50.564 196.952 50.0359 198.281 50.0359H225.179C226.508 50.0359 227.783 50.564 228.723 51.5039C229.663 52.4438 230.191 53.7187 230.191 55.0479C230.191 56.3772 229.663 57.652 228.723 58.5919C227.783 59.5318 226.508 60.0599 225.179 60.0599Z" fill="white"/>
<path d="M201.623 73.7592H195.274C194.787 73.7592 194.319 73.5656 193.975 73.221C193.63 72.8763 193.437 72.4089 193.437 71.9215C193.437 71.4341 193.63 70.9667 193.975 70.6221C194.319 70.2774 194.787 70.0838 195.274 70.0838H201.623C202.11 70.0838 202.577 70.2774 202.922 70.6221C203.267 70.9667 203.46 71.4341 203.46 71.9215C203.46 72.4089 203.267 72.8763 202.922 73.221C202.577 73.5656 202.11 73.7592 201.623 73.7592Z" fill="white"/>
<path d="M228.019 73.7592H221.67C221.183 73.7592 220.716 73.5656 220.371 73.221C220.026 72.8763 219.833 72.4089 219.833 71.9215C219.833 71.4341 220.026 70.9667 220.371 70.6221C220.716 70.2774 221.183 70.0838 221.67 70.0838H228.019C228.506 70.0838 228.974 70.2774 229.318 70.6221C229.663 70.9667 229.857 71.4341 229.857 71.9215C229.857 72.4089 229.663 72.8763 229.318 73.221C228.974 73.5656 228.506 73.7592 228.019 73.7592Z" fill="white"/>
<path d="M214.654 73.7592H208.305C207.818 73.7592 207.35 73.5656 207.006 73.221C206.661 72.8763 206.468 72.4089 206.468 71.9215C206.468 71.4341 206.661 70.9667 207.006 70.6221C207.35 70.2774 207.818 70.0838 208.305 70.0838H214.654C215.141 70.0838 215.609 70.2774 215.953 70.6221C216.298 70.9667 216.491 71.4341 216.491 71.9215C216.491 72.4089 216.298 72.8763 215.953 73.221C215.609 73.5656 215.141 73.7592 214.654 73.7592Z" fill="white"/>
<path d="M201.623 80.776H195.274C194.787 80.776 194.319 80.5824 193.975 80.2377C193.63 79.8931 193.437 79.4256 193.437 78.9382C193.437 78.4509 193.63 77.9834 193.975 77.6388C194.319 77.2941 194.787 77.1005 195.274 77.1005H201.623C202.11 77.1005 202.577 77.2941 202.922 77.6388C203.267 77.9834 203.46 78.4509 203.46 78.9382C203.46 79.4256 203.267 79.8931 202.922 80.2377C202.577 80.5824 202.11 80.776 201.623 80.776Z" fill="white"/>
<path d="M228.019 80.776H221.67C221.183 80.776 220.716 80.5824 220.371 80.2377C220.026 79.8931 219.833 79.4256 219.833 78.9382C219.833 78.4509 220.026 77.9834 220.371 77.6388C220.716 77.2941 221.183 77.1005 221.67 77.1005H228.019C228.506 77.1005 228.974 77.2941 229.318 77.6388C229.663 77.9834 229.857 78.4509 229.857 78.9382C229.857 79.4256 229.663 79.8931 229.318 80.2377C228.974 80.5824 228.506 80.776 228.019 80.776Z" fill="white"/>
<path d="M214.654 80.776H208.305C207.818 80.776 207.35 80.5824 207.006 80.2377C206.661 79.8931 206.468 79.4256 206.468 78.9382C206.468 78.4509 206.661 77.9834 207.006 77.6388C207.35 77.2941 207.818 77.1005 208.305 77.1005H214.654C215.141 77.1005 215.609 77.2941 215.953 77.6388C216.298 77.9834 216.491 78.4509 216.491 78.9382C216.491 79.4256 216.298 79.8931 215.953 80.2377C215.609 80.5824 215.141 80.776 214.654 80.776Z" fill="white"/>
<path d="M201.623 87.7928H195.274C194.787 87.7928 194.319 87.5992 193.975 87.2545C193.63 86.9099 193.437 86.4425 193.437 85.9551C193.437 85.4677 193.63 85.0002 193.975 84.6556C194.319 84.3109 194.787 84.1173 195.274 84.1173H201.623C202.11 84.1173 202.577 84.3109 202.922 84.6556C203.267 85.0002 203.46 85.4677 203.46 85.9551C203.46 86.4425 203.267 86.9099 202.922 87.2545C202.577 87.5992 202.11 87.7928 201.623 87.7928Z" fill="white"/>
<path d="M228.019 87.7928H221.67C221.183 87.7928 220.716 87.5992 220.371 87.2545C220.026 86.9099 219.833 86.4425 219.833 85.9551C219.833 85.4677 220.026 85.0002 220.371 84.6556C220.716 84.3109 221.183 84.1173 221.67 84.1173H228.019C228.506 84.1173 228.974 84.3109 229.318 84.6556C229.663 85.0002 229.857 85.4677 229.857 85.9551C229.857 86.4425 229.663 86.9099 229.318 87.2545C228.974 87.5992 228.506 87.7928 228.019 87.7928Z" fill="white"/>
<path d="M214.654 87.7928H208.305C207.818 87.7928 207.35 87.5992 207.006 87.2545C206.661 86.9099 206.468 86.4425 206.468 85.9551C206.468 85.4677 206.661 85.0002 207.006 84.6556C207.35 84.3109 207.818 84.1173 208.305 84.1173H214.654C215.141 84.1173 215.609 84.3109 215.953 84.6556C216.298 85.0002 216.491 85.4677 216.491 85.9551C216.491 86.4425 216.298 86.9099 215.953 87.2545C215.609 87.5992 215.141 87.7928 214.654 87.7928Z" fill="white"/>
<path d="M201.623 94.8094H195.274C194.787 94.8094 194.319 94.6158 193.975 94.2712C193.63 93.9266 193.437 93.4591 193.437 92.9717C193.437 92.4843 193.63 92.0169 193.975 91.6723C194.319 91.3277 194.787 91.134 195.274 91.134H201.623C202.11 91.134 202.577 91.3277 202.922 91.6723C203.267 92.0169 203.46 92.4843 203.46 92.9717C203.46 93.4591 203.267 93.9266 202.922 94.2712C202.577 94.6158 202.11 94.8094 201.623 94.8094Z" fill="white"/>
<path d="M228.019 94.8094H221.67C221.183 94.8094 220.716 94.6158 220.371 94.2712C220.026 93.9266 219.833 93.4591 219.833 92.9717C219.833 92.4843 220.026 92.0169 220.371 91.6723C220.716 91.3277 221.183 91.134 221.67 91.134H228.019C228.506 91.134 228.974 91.3277 229.318 91.6723C229.663 92.0169 229.857 92.4843 229.857 92.9717C229.857 93.4591 229.663 93.9266 229.318 94.2712C228.974 94.6158 228.506 94.8094 228.019 94.8094Z" fill="white"/>
<path d="M214.654 94.8094H208.305C207.818 94.8094 207.35 94.6158 207.006 94.2712C206.661 93.9266 206.468 93.4591 206.468 92.9717C206.468 92.4843 206.661 92.0169 207.006 91.6723C207.35 91.3277 207.818 91.134 208.305 91.134H214.654C215.141 91.134 215.609 91.3277 215.953 91.6723C216.298 92.0169 216.491 92.4843 216.491 92.9717C216.491 93.4591 216.298 93.9266 215.953 94.2712C215.609 94.6158 215.141 94.8094 214.654 94.8094Z" fill="white"/>
<path d="M158.687 87.4586C168.098 87.4586 175.727 79.8292 175.727 70.4179C175.727 61.0066 168.098 53.3773 158.687 53.3773C149.276 53.3773 141.646 61.0066 141.646 70.4179C141.646 79.8292 149.276 87.4586 158.687 87.4586Z" fill="#CACACA"/>
<path d="M158.687 91.3011C157.358 91.2996 156.084 90.7711 155.144 89.8315C154.205 88.8919 153.676 87.6179 153.675 86.2891V54.5467C153.674 53.8882 153.804 53.236 154.055 52.6275C154.307 52.0189 154.676 51.4659 155.141 51.0001C155.607 50.5343 156.159 50.1647 156.768 49.9126C157.376 49.6605 158.028 49.5307 158.687 49.5307C159.345 49.5307 159.997 49.6605 160.606 49.9126C161.214 50.1647 161.767 50.5343 162.232 51.0001C162.698 51.4659 163.067 52.0189 163.318 52.6275C163.57 53.236 163.699 53.8882 163.699 54.5467V86.2891C163.697 87.6179 163.169 88.8918 162.229 89.8314C161.289 90.771 160.016 91.2996 158.687 91.3011Z" fill="white"/>
<path d="M203.205 57.9078H198.527C198.35 57.9078 198.18 57.8374 198.055 57.7121C197.93 57.5867 197.859 57.4168 197.859 57.2395C197.859 57.0623 197.93 56.8923 198.055 56.767C198.18 56.6417 198.35 56.5713 198.527 56.5713H203.205C203.382 56.5713 203.552 56.6417 203.678 56.767C203.803 56.8923 203.873 57.0623 203.873 57.2395C203.873 57.4168 203.803 57.5867 203.678 57.7121C203.552 57.8374 203.382 57.9078 203.205 57.9078Z" fill="#E4E4E4"/>
<path d="M210.556 58.0749H205.878C205.701 58.0749 205.531 58.0045 205.406 57.8791C205.28 57.7538 205.21 57.5838 205.21 57.4066C205.21 57.2294 205.28 57.0594 205.406 56.9341C205.531 56.8087 205.701 56.7383 205.878 56.7383H210.556C210.733 56.7383 210.903 56.8087 211.029 56.9341C211.154 57.0594 211.224 57.2294 211.224 57.4066C211.224 57.5838 211.154 57.7538 211.029 57.8791C210.903 58.0045 210.733 58.0749 210.556 58.0749Z" fill="#E4E4E4"/>
<path d="M217.907 58.2419H213.229C213.052 58.2419 212.882 58.1715 212.757 58.0462C212.631 57.9209 212.561 57.7509 212.561 57.5737C212.561 57.3964 212.631 57.2264 212.757 57.1011C212.882 56.9758 213.052 56.9054 213.229 56.9054H217.907C218.084 56.9054 218.254 56.9758 218.379 57.1011C218.505 57.2264 218.575 57.3964 218.575 57.5737C218.575 57.7509 218.505 57.9209 218.379 58.0462C218.254 58.1715 218.084 58.2419 217.907 58.2419Z" fill="#E4E4E4"/>
<path d="M225.258 58.409H220.58C220.403 58.409 220.233 58.3386 220.107 58.2132C219.982 58.0879 219.912 57.9179 219.912 57.7407C219.912 57.5635 219.982 57.3935 220.107 57.2682C220.233 57.1429 220.403 57.0724 220.58 57.0724H225.258C225.435 57.0724 225.605 57.1429 225.73 57.2682C225.856 57.3935 225.926 57.5635 225.926 57.7407C225.926 57.9179 225.856 58.0879 225.73 58.2132C225.605 58.3386 225.435 58.409 225.258 58.409Z" fill="#E4E4E4"/>
<path d="M110.238 123.711C110.238 124.539 110.402 125.358 110.721 126.122C111.039 126.885 111.507 127.577 112.096 128.159H109.336C108.521 128.159 107.715 127.998 106.962 127.687C106.21 127.375 105.526 126.918 104.951 126.342C104.375 125.767 103.918 125.083 103.606 124.331C103.295 123.578 103.134 122.772 103.134 121.958V21.4237C103.134 20.6094 103.295 19.803 103.606 19.0507C103.918 18.2983 104.375 17.6147 104.951 17.0389C105.526 16.463 106.21 16.0063 106.962 15.6946C107.715 15.383 108.521 15.2226 109.336 15.2226H113.352C112.405 15.7735 111.619 16.5634 111.072 17.5132C110.526 18.4631 110.238 19.5397 110.238 20.6355L110.238 123.711Z" fill="#CACACA"/>
<path d="M313.911 145H0.397914C0.292599 145 0.191704 144.958 0.117343 144.883C0.0429812 144.808 0.0012207 144.707 0.0012207 144.602C0.0012207 144.497 0.0429812 144.396 0.117343 144.321C0.191704 144.247 0.292599 144.205 0.397914 144.204H313.911C314.016 144.204 314.118 144.246 314.192 144.321C314.267 144.395 314.309 144.497 314.309 144.602C314.309 144.708 314.267 144.809 314.192 144.883C314.118 144.958 314.016 145 313.911 145Z" fill="#CACACA"/>
<path d="M109.57 44.5994C107.458 44.008 105.338 43.46 103.211 42.9554C95.9365 41.2189 88.5616 39.9334 81.1285 39.1062C79.8686 38.7745 78.5286 38.9538 77.4003 39.6053C76.2719 40.2567 75.4466 41.3275 75.104 42.5845L71.3919 56.2839C71.0511 57.5467 71.2252 58.8931 71.8761 60.0275C72.527 61.162 73.6014 61.9919 74.8636 62.335L74.9137 62.345C79.8254 62.903 84.7839 63.6782 89.7156 64.6672C90.1567 64.7541 90.5945 64.8443 91.0354 64.9379C92.6159 65.2653 94.1919 65.6151 95.7634 65.9871C96.4517 66.1474 97.1366 66.3145 97.8249 66.4849C99.676 66.946 101.528 67.4372 103.382 67.9584C105.443 68.5398 107.506 69.1602 109.57 69.8195C109.794 69.8864 110.017 69.9565 110.238 70.03V44.7898C110.017 44.723 109.794 44.6595 109.57 44.5994Z" fill="white"/>
<path d="M109.57 44.5994C107.458 44.008 105.338 43.46 103.211 42.9554C95.9365 41.2189 88.5616 39.9334 81.1285 39.1062C79.8686 38.7745 78.5286 38.9538 77.4003 39.6053C76.2719 40.2567 75.4466 41.3275 75.104 42.5845L71.3919 56.2839C71.0511 57.5467 71.2252 58.8931 71.8761 60.0275C72.527 61.162 73.6014 61.9919 74.8636 62.335L74.9137 62.345C79.8254 62.903 84.7839 63.6782 89.7156 64.6672C90.1567 64.7541 90.5945 64.8443 91.0354 64.9379C92.6159 65.2653 94.1919 65.6151 95.7634 65.9871C96.4517 66.1474 97.1366 66.3145 97.8249 66.4849C99.676 66.946 101.528 67.4372 103.382 67.9584C105.443 68.5398 107.506 69.1602 109.57 69.8195C109.794 69.8864 110.017 69.9565 110.238 70.03V69.325C110.014 69.2548 109.79 69.1847 109.57 69.1145C107.672 68.5097 105.776 67.9406 103.883 67.4071C103.174 67.2033 102.466 67.0061 101.758 66.8157C100.481 66.4715 99.2083 66.1419 97.9386 65.8267C97.2637 65.6562 96.5898 65.4925 95.917 65.3355C95.867 65.3221 95.8135 65.3121 95.7633 65.2987C94.6172 65.0281 93.4689 64.7697 92.3184 64.5235C91.8774 64.43 91.4365 64.3364 90.9953 64.2462C85.676 63.1436 80.3165 62.2849 75.0138 61.6834C73.9292 61.3814 73.0078 60.6631 72.4503 59.685C71.8927 58.7069 71.7441 57.5481 72.0368 56.461L75.7489 42.7583C76.0459 41.668 76.7632 40.7401 77.7436 40.1782C78.724 39.6163 79.8872 39.4663 80.9781 39.7611L81.0281 39.7678C88.367 40.5827 95.649 41.8459 102.834 43.5502C102.907 43.5702 102.981 43.5869 103.054 43.6036C105.233 44.1249 107.405 44.6884 109.57 45.2943C109.79 45.3545 110.014 45.418 110.238 45.4848V44.7898C110.017 44.723 109.794 44.6595 109.57 44.5994Z" fill="#0D5474"/>
<path d="M110.238 45.1373V69.6758C110.014 69.6023 109.793 69.5321 109.569 69.462C107.595 68.8305 105.613 68.2357 103.625 67.6777C101.717 67.1365 99.8028 66.6275 97.8817 66.1508C97.2001 65.9837 96.5217 65.82 95.8401 65.6596C95.8133 65.5393 95.7866 65.419 95.7632 65.2987C95.6396 64.724 95.5428 64.1427 95.4692 63.5579C95.4358 63.3341 95.4125 63.1102 95.389 62.883C95.0374 59.3033 95.5274 55.6909 96.82 52.3343C98.1125 48.9776 100.172 45.9696 102.833 43.5502C102.93 43.4566 103.031 43.3664 103.131 43.2795C105.289 43.7941 107.436 44.351 109.569 44.9502C109.793 45.007 110.017 45.0705 110.238 45.1373Z" fill="#0D5474"/>
<path d="M88.0482 55.1847L78.756 54.0887C78.4291 54.0501 78.0978 54.0763 77.781 54.1657C77.4643 54.2551 77.1682 54.4061 76.9097 54.6099C76.6513 54.8138 76.4355 55.0665 76.2747 55.3538C76.114 55.641 76.0114 55.9571 75.9727 56.284C75.9341 56.6109 75.9603 56.9422 76.0497 57.259C76.1392 57.5757 76.2901 57.8718 76.4939 58.1303C76.6978 58.3887 76.9506 58.6045 77.2378 58.7653C77.525 58.926 77.8411 59.0286 78.168 59.0672L87.4601 60.1632C88.1194 60.2395 88.7821 60.0511 89.3027 59.6394C89.8234 59.2278 90.1595 58.6264 90.2374 57.9673C90.3153 57.3081 90.1285 56.645 89.7181 56.1234C89.3077 55.6017 88.7072 55.2641 88.0482 55.1847ZM89.5786 57.8911C89.5204 58.3747 89.2727 58.8155 88.89 59.1168C88.5073 59.4181 88.0207 59.5553 87.5369 59.4983L78.2447 58.4023C77.7622 58.3436 77.3226 58.096 77.0223 57.7138C76.7219 57.3316 76.5853 56.846 76.6423 56.3632C76.6993 55.8805 76.9454 55.44 77.3265 55.1383C77.7076 54.8367 78.1928 54.6983 78.6757 54.7536L87.9679 55.8496C88.4516 55.9081 88.8925 56.1557 89.1943 56.5382C89.496 56.9207 89.6342 57.4071 89.5786 57.8911L89.5786 57.8911Z" fill="#0D5474"/>
<path d="M110.238 50.8844V62.5221C110.023 62.651 109.8 62.7648 109.57 62.8629C108.37 63.3984 107.041 63.5717 105.744 63.3615C104.448 63.1514 103.241 62.567 102.272 61.6801C102.179 61.5966 102.085 61.5064 101.995 61.4128C101.905 61.3226 101.818 61.2257 101.734 61.1288C100.726 59.9703 100.143 58.5021 100.082 56.9672C100.021 55.4323 100.486 53.9226 101.4 52.6878C102.313 51.453 103.621 50.5671 105.107 50.1766C106.592 49.786 108.167 49.9143 109.57 50.5402C109.798 50.6429 110.021 50.7577 110.238 50.8844Z" fill="white"/>
<path d="M109.57 59.3078C106.94 59.8557 104.328 60.4627 101.734 61.1288C100.765 61.376 99.7997 61.6322 98.8374 61.8973C97.688 62.2147 96.5385 62.5433 95.389 62.883C93.9223 63.3173 92.4577 63.7717 90.9953 64.2462C90.5709 64.3865 90.1433 64.5269 89.7155 64.6672C85.6492 66.0238 81.6096 67.5274 77.6367 69.168C76.3724 69.4839 75.2842 70.2866 74.609 71.4012C73.9337 72.5157 73.7261 73.8519 74.0314 75.1188L77.3829 88.9117C77.693 90.1821 78.4944 91.2776 79.6113 91.9579C80.7281 92.6381 82.0692 92.8476 83.3403 92.5404L83.3871 92.5237C89.9203 89.8439 96.6069 87.5544 103.412 85.6673C105.443 85.1027 107.496 84.5703 109.57 84.0702C109.794 84.0167 110.014 83.9633 110.238 83.9132V59.1708C110.014 59.2109 109.794 59.2576 109.57 59.3078Z" fill="white"/>
<path d="M109.57 59.3078C106.94 59.8557 104.328 60.4627 101.734 61.1288C100.765 61.376 99.7997 61.6322 98.8374 61.8973C97.688 62.2147 96.5385 62.5433 95.389 62.883C93.9223 63.3173 92.4577 63.7717 90.9953 64.2462C90.5709 64.3865 90.1433 64.5269 89.7155 64.6672C85.6492 66.0238 81.6096 67.5274 77.6367 69.168C76.3724 69.4839 75.2842 70.2866 74.609 71.4012C73.9337 72.5157 73.7261 73.8519 74.0314 75.1188L77.3829 88.9117C77.693 90.1821 78.4944 91.2776 79.6113 91.9579C80.7281 92.6381 82.0692 92.8476 83.3403 92.5404L83.3871 92.5237C89.9203 89.8439 96.6069 87.5544 103.412 85.6673C105.443 85.1027 107.496 84.5703 109.57 84.0702C109.794 84.0167 110.014 83.9633 110.238 83.9132V83.2249C110.014 83.2783 109.794 83.3318 109.57 83.3852C109.402 83.4253 109.232 83.4654 109.065 83.5055C107.1 83.9833 105.157 84.489 103.234 85.0225C103.184 85.0358 103.131 85.0525 103.081 85.0659C96.3104 86.9488 89.6574 89.2304 83.1566 91.8989C82.0603 92.1559 80.9069 91.9697 79.9471 91.381C78.9873 90.7922 78.2988 89.8484 78.031 88.7547L74.6831 74.9618C74.4173 73.8635 74.5981 72.7046 75.1856 71.7394C75.7731 70.7741 76.7195 70.0813 77.8172 69.8128L77.8672 69.7961C82.1943 68.0052 86.598 66.3813 91.0354 64.9379C91.463 64.7975 91.8908 64.6605 92.3184 64.5235C93.3676 64.1928 94.4179 63.8709 95.4693 63.5579C96.5786 63.2271 97.6867 62.9086 98.7938 62.6023C98.8674 62.5822 98.9409 62.5622 99.0144 62.5422C100.097 62.2448 101.183 61.9574 102.272 61.6801C104.688 61.0653 107.12 60.5006 109.57 59.9861C109.79 59.9393 110.014 59.8925 110.238 59.8491V59.1708C110.014 59.2109 109.794 59.2576 109.57 59.3078Z" fill="#0D5474"/>
<path d="M110.238 59.5082V83.569C110.017 83.6191 109.794 83.6692 109.57 83.7227C107.478 84.2306 105.395 84.7719 103.321 85.3466C103.238 85.253 103.158 85.1595 103.081 85.0659C100.916 82.5315 99.325 79.5585 98.4177 76.3511C97.5105 73.1437 97.3082 69.7779 97.8249 66.4849C97.8417 66.3746 97.8618 66.261 97.8819 66.1508C97.8985 66.0438 97.9186 65.9336 97.9387 65.8267C98.1449 64.7325 98.4308 63.6549 98.7939 62.6023C98.8374 62.4753 98.8808 62.3483 98.9277 62.2214C99.9467 61.9407 100.969 61.6712 101.995 61.4128C104.504 60.7646 107.029 60.1754 109.57 59.6452C109.79 59.5951 110.014 59.5517 110.238 59.5082Z" fill="#0D5474"/>
<path d="M94.7109 81.3036C94.4604 80.6882 93.976 80.1973 93.364 79.9386C92.752 79.6799 92.0624 79.6745 91.4464 79.9236L82.7757 83.4387C82.1608 83.6893 81.6705 84.1737 81.4125 84.7854C81.1544 85.3972 81.1497 86.0864 81.3993 86.7017C81.649 87.317 82.1326 87.808 82.744 88.067C83.3554 88.326 84.0446 88.3318 84.6602 88.0831L93.331 84.568C93.9459 84.3169 94.4362 83.8325 94.6948 83.2207C94.9535 82.6089 94.9592 81.9196 94.7109 81.3036ZM93.0804 83.9466L84.4096 87.465C83.9579 87.6476 83.452 87.6435 83.0033 87.4535C82.5545 87.2635 82.1995 86.9031 82.0163 86.4516C81.833 86.0001 81.8364 85.4942 82.0258 85.0452C82.2152 84.5962 82.575 84.2407 83.0263 84.0568L91.697 80.5417C92.1485 80.3583 92.6544 80.3617 93.1034 80.5513C93.5524 80.7408 93.9077 81.101 94.0911 81.5525C94.2745 82.004 94.2711 82.5099 94.0816 82.9588C93.892 83.4078 93.5319 83.7631 93.0804 83.9466Z" fill="#0D5474"/>
<path d="M110.238 65.6529V78.7542C110.018 78.8103 109.795 78.8549 109.57 78.8878C108.228 79.0758 106.861 78.856 105.646 78.2568C104.432 77.6577 103.425 76.7069 102.758 75.5282C102.09 74.3494 101.793 72.9972 101.904 71.6472C102.015 70.2972 102.53 69.0119 103.382 67.9584C103.459 67.8615 103.539 67.768 103.626 67.6778C103.706 67.5842 103.793 67.494 103.883 67.4071C104.622 66.6764 105.519 66.1261 106.506 65.7992C107.492 65.4724 108.541 65.3777 109.57 65.5226C109.795 65.5528 110.018 65.5963 110.238 65.6529Z" fill="white"/>
<path d="M109.57 42.8585V76.2081C109.794 76.1346 110.017 76.0644 110.238 75.9976V43.1626C110.014 43.059 109.794 42.9588 109.57 42.8585ZM109.57 42.8585V76.2081C109.794 76.1346 110.017 76.0644 110.238 75.9976V43.1626C110.014 43.059 109.794 42.9588 109.57 42.8585ZM109.57 42.8585V76.2081C109.794 76.1346 110.017 76.0644 110.238 75.9976V43.1626C110.014 43.059 109.794 42.9588 109.57 42.8585ZM109.57 45.2943V83.7227C109.794 83.6692 110.017 83.6191 110.238 83.569V45.4848C110.014 45.418 109.79 45.3545 109.57 45.2943V45.2943ZM109.57 45.2943V83.7227C109.794 83.6692 110.017 83.6191 110.238 83.569V45.4848C110.014 45.418 109.79 45.3545 109.57 45.2943V45.2943ZM109.57 45.2943V83.7227C109.794 83.6692 110.017 83.6191 110.238 83.569V45.4848C110.014 45.418 109.79 45.3545 109.57 45.2943V45.2943ZM109.57 45.2943V83.7227C109.794 83.6692 110.017 83.6191 110.238 83.569V45.4848C110.014 45.418 109.79 45.3545 109.57 45.2943V45.2943ZM109.57 45.2943V84.0702C109.794 84.0167 110.014 83.9632 110.238 83.9131V45.4848C110.014 45.418 109.79 45.3545 109.57 45.2943V45.2943ZM255.334 13.699H116.506C114.667 13.702 112.905 14.4338 111.605 15.734C110.304 17.0342 109.573 18.7968 109.57 20.6355V123.711C109.573 125.55 110.305 127.312 111.605 128.612C112.905 129.911 114.668 130.642 116.506 130.645H255.334C257.172 130.642 258.934 129.911 260.234 128.611C261.534 127.312 262.265 125.55 262.267 123.711V20.6355C262.266 18.7969 261.535 17.0339 260.235 15.7335C258.935 14.4331 257.173 13.7014 255.334 13.699V13.699ZM261.599 123.711C261.597 125.372 260.937 126.965 259.762 128.139C258.588 129.314 256.995 129.975 255.334 129.976H116.506C114.845 129.975 113.252 129.314 112.077 128.14C110.902 126.965 110.24 125.373 110.238 123.711V20.6355C110.24 18.9738 110.902 17.3809 112.077 16.2059C113.252 15.0309 114.845 14.3697 116.506 14.3672H255.334C256.996 14.3692 258.589 15.0303 259.763 16.2055C260.938 17.3807 261.598 18.974 261.599 20.6355V123.711ZM109.57 45.2943V83.3852C109.794 83.3317 110.014 83.2783 110.238 83.2248V45.4848C110.014 45.418 109.79 45.3545 109.57 45.2943V45.2943ZM109.57 45.2943V83.7227C109.794 83.6692 110.017 83.6191 110.238 83.569V45.4848C110.014 45.418 109.79 45.3545 109.57 45.2943V45.2943ZM109.57 45.2943V83.7227C109.794 83.6692 110.017 83.6191 110.238 83.569V45.4848C110.014 45.418 109.79 45.3545 109.57 45.2943V45.2943ZM109.57 45.2943V83.7227C109.794 83.6692 110.017 83.6191 110.238 83.569V45.4848C110.014 45.418 109.79 45.3545 109.57 45.2943V45.2943ZM109.57 42.8585V76.2081C109.794 76.1346 110.017 76.0644 110.238 75.9976V43.1626C110.014 43.059 109.794 42.9588 109.57 42.8585ZM109.57 42.8585V76.2081C109.794 76.1346 110.017 76.0644 110.238 75.9976V43.1626C110.014 43.059 109.794 42.9588 109.57 42.8585Z" fill="#2F2E41"/>
<path d="M79.8073 78.1444C79.6764 77.839 79.48 77.566 79.2321 77.3447C78.9842 77.1233 78.6908 76.959 78.3726 76.8634C78.0543 76.7677 77.719 76.743 77.3901 76.7909C77.0613 76.8389 76.7469 76.9584 76.4693 77.1409L70.0637 72.2191L69.761 76.406L75.8902 80.4379C76.2279 80.8841 76.7175 81.1909 77.2662 81.3002C77.8149 81.4095 78.3847 81.3137 78.8675 81.031C79.3504 80.7483 79.7127 80.2983 79.8859 79.7663C80.0591 79.2343 80.0312 78.6572 79.8073 78.1444V78.1444Z" fill="#FFB6B6"/>
<path d="M53.9953 48.441L51.8875 47.4449C51.8875 47.4449 48.4919 48.4 50.1416 52.8902L60.1252 71.4891L72.3139 78.6253L76.1137 75.2581L63.9162 65.607L53.9953 48.441Z" fill="#3F3D56"/>
</g>
<defs>
<clipPath id="clip0_36_230">
<rect width="314.309" height="145" fill="white"/>
</clipPath>
</defs>
</svg>
