<svg width="163" height="145" viewBox="0 0 163 145" fill="none" xmlns="http://www.w3.org/2000/svg">
<g clip-path="url(#clip0_36_139)">
<path d="M0.908163 32.5365C0.590805 32.6257 0.321808 32.8372 0.160184 33.1245C-0.00143948 33.4119 -0.0424949 33.7516 0.0460259 34.0692L20.8338 108.309C20.9231 108.626 21.1346 108.895 21.4219 109.057C21.7092 109.219 22.049 109.26 22.3665 109.171L99.0009 87.7129C99.3182 87.6236 99.5872 87.4121 99.7488 87.1248C99.9104 86.8375 99.9515 86.4978 99.863 86.1802L79.0752 11.9403C78.9859 11.623 78.7744 11.354 78.4871 11.1924C78.1998 11.0307 77.8601 10.9897 77.5425 11.0782L0.908163 32.5365Z" fill="#E6E6E6"/>
<path d="M23.3296 105.666L96.3573 85.2172L76.5794 14.5839L3.55167 35.0322L23.3296 105.666Z" fill="white"/>
<path d="M13.2069 44.4639C12.7197 44.6003 12.5188 45.4096 12.7591 46.2679C12.9995 47.1262 13.5914 47.7136 14.0786 47.5771L47.3855 38.2509C47.8727 38.1145 48.0736 37.3052 47.8333 36.4469C47.5929 35.5886 47.001 35.0012 46.5138 35.1377L13.2069 44.4639Z" fill="#E6E6E6"/>
<path d="M15.8892 54.0432C15.4019 54.1796 15.2011 54.9889 15.4414 55.8472C15.6817 56.7055 16.2737 57.2929 16.7609 57.1564L50.0678 47.8302C50.555 47.6938 50.7559 46.8845 50.5156 46.0262C50.2752 45.1679 49.6833 44.5805 49.1961 44.7169L15.8892 54.0432Z" fill="#E6E6E6"/>
<path d="M18.5405 63.512C18.0533 63.6484 17.8524 64.4578 18.0928 65.3161C18.3331 66.1744 18.9251 66.7617 19.4123 66.6253L52.7192 57.2991C53.2064 57.1627 53.4073 56.3533 53.1669 55.495C52.9266 54.6367 52.3346 54.0494 51.8474 54.1858L18.5405 63.512Z" fill="#E6E6E6"/>
<path d="M21.2228 73.0913C20.7356 73.2277 20.5347 74.037 20.775 74.8954C21.0154 75.7537 21.6073 76.341 22.0945 76.2046L55.4015 66.8784C55.8887 66.7419 56.0896 65.9326 55.8492 65.0743C55.6089 64.216 55.0169 63.6287 54.5297 63.7651L21.2228 73.0913Z" fill="#E6E6E6"/>
<path d="M63.4166 30.5152C63.212 30.5722 63.0206 30.669 62.8534 30.8001C62.6862 30.9312 62.5465 31.0939 62.4422 31.279C62.338 31.4641 62.2712 31.6679 62.2458 31.8788C62.2204 32.0897 62.2368 32.3036 62.2941 32.5082C62.3513 32.7127 62.4484 32.904 62.5796 33.071C62.7109 33.2381 62.8738 33.3776 63.059 33.4817C63.2442 33.5857 63.4481 33.6522 63.6591 33.6774C63.87 33.7026 64.0838 33.6859 64.2883 33.6284L70.5148 31.8849C70.9277 31.7693 71.2777 31.4945 71.4879 31.1208C71.6981 30.7471 71.7512 30.3053 71.6356 29.8924C71.52 29.4796 71.2451 29.1296 70.8715 28.9194C70.4978 28.7092 70.0559 28.6561 69.6431 28.7717L63.4166 30.5152Z" fill="#E6E6E6"/>
<path d="M66.0469 39.9088C65.8423 39.9658 65.6509 40.0626 65.4837 40.1937C65.3165 40.3248 65.1768 40.4875 65.0725 40.6726C64.9683 40.8577 64.9015 41.0615 64.8761 41.2724C64.8507 41.4833 64.8671 41.6972 64.9244 41.9018C64.9817 42.1063 65.0787 42.2976 65.21 42.4646C65.3412 42.6317 65.5041 42.7712 65.6893 42.8753C65.8745 42.9793 66.0784 43.0458 66.2894 43.071C66.5003 43.0962 66.7142 43.0795 66.9187 43.022L73.1452 41.2785C73.558 41.1629 73.908 40.8881 74.1182 40.5144C74.3284 40.1407 74.3815 39.6989 74.2659 39.286C74.1503 38.8732 73.8755 38.5232 73.5018 38.313C73.1281 38.1028 72.6863 38.0497 72.2734 38.1653L66.0469 39.9088Z" fill="#E6E6E6"/>
<path d="M68.6772 49.3024C68.4728 49.3596 68.2816 49.4566 68.1147 49.5877C67.9477 49.7188 67.8082 49.8815 67.7042 50.0665C67.6001 50.2515 67.5335 50.4552 67.5081 50.666C67.4828 50.8768 67.4992 51.0905 67.5565 51.2949C67.6137 51.4993 67.7106 51.6905 67.8417 51.8574C67.9729 52.0244 68.1356 52.1639 68.3206 52.2679C68.5056 52.372 68.7093 52.4386 68.9201 52.464C69.1308 52.4893 69.3445 52.4729 69.549 52.4157L75.7755 50.6722C76.1884 50.5566 76.5384 50.2817 76.7486 49.908C76.9587 49.5344 77.0119 49.0925 76.8963 48.6797C76.7807 48.2668 76.5058 47.9168 76.1321 47.7066C75.7585 47.4964 75.3166 47.4433 74.9038 47.5589L68.6772 49.3024Z" fill="#E6E6E6"/>
<path d="M71.3075 58.6961C70.895 58.812 70.5456 59.087 70.3358 59.4605C70.1259 59.834 70.073 60.2755 70.1885 60.6881C70.304 61.1006 70.5785 61.4504 70.9518 61.6607C71.3251 61.8709 71.7665 61.9244 72.1792 61.8093L78.4058 60.0658C78.8182 59.9499 79.1677 59.6749 79.3775 59.3014C79.5873 58.9279 79.6403 58.4864 79.5248 58.0738C79.4092 57.6613 79.1347 57.3115 78.7614 57.1012C78.3882 56.891 77.9467 56.8375 77.534 56.9526L71.3075 58.6961Z" fill="#E6E6E6"/>
<path d="M73.8205 74.9784C73.5597 75.0511 73.3159 75.1745 73.1028 75.3415C72.8898 75.5085 72.7118 75.7159 72.5789 75.9517C72.4461 76.1876 72.361 76.4473 72.3286 76.7161C72.2963 76.9848 72.3171 77.2573 72.3901 77.518C72.4631 77.7786 72.5868 78.0224 72.754 78.2352C72.9213 78.4481 73.1288 78.6258 73.3648 78.7584C73.6008 78.891 73.8607 78.9758 74.1295 79.0078C74.3982 79.0399 74.6707 79.0187 74.9313 78.9454L82.8652 76.7239C83.3913 76.5766 83.8373 76.2263 84.1051 75.7502C84.3729 75.274 84.4406 74.711 84.2933 74.185C84.146 73.6589 83.7958 73.2129 83.3197 72.9451C82.8435 72.6772 82.2805 72.6095 81.7545 72.7568L73.8205 74.9784Z" fill="#0D5474"/>
<path d="M81.9858 66.9667L23.2757 83.406L23.4218 83.9279L82.1319 67.4886L81.9858 66.9667Z" fill="#E6E6E6"/>
<path d="M140.959 137.13L136.251 138.269L129.619 120.649L136.569 118.969L140.959 137.13Z" fill="#A0616A"/>
<path d="M128.127 145L128.095 144.868C127.722 143.317 127.979 141.681 128.811 140.32C129.642 138.958 130.98 137.982 132.53 137.605L141.743 135.378L143.189 141.359L128.127 145Z" fill="#2F2E41"/>
<path d="M120.115 140.338L115.27 140.338L112.966 121.653L120.115 121.653L120.115 140.338Z" fill="#A0616A"/>
<path d="M121.288 144.972L105.792 144.971V144.836C105.792 143.24 106.426 141.709 107.555 140.581C108.683 139.452 110.214 138.818 111.81 138.818H111.81L121.288 138.819L121.288 144.972Z" fill="#2F2E41"/>
<path d="M112.962 133.044L108.258 76.9878L127.729 73.3988L127.806 73.3849L133.505 77.0484L131.522 97.6783L140.654 129.842L132.769 131.917L123.621 102.087L121.528 93.0162L120.455 104.803L121.251 133.872L112.962 133.044Z" fill="#2F2E41"/>
<path d="M107.655 78.2592L107.604 78.1939L114.332 27.5341L114.341 27.4678L114.388 27.4203C114.487 27.3211 116.845 24.9916 119.27 24.9916C119.62 24.9916 119.953 24.9827 120.273 24.9746C122.129 24.9264 123.594 24.8878 125.336 26.63C127.111 28.4047 132.902 34.885 132.902 43.7605C132.902 52.3512 133.684 79.0483 133.692 79.3168L133.703 79.6938L133.387 79.4882C133.309 79.438 125.52 74.4788 118.988 79.0888C116.947 80.5296 115.113 81.0348 113.545 81.0348C109.896 81.0348 107.687 78.2989 107.655 78.2592Z" fill="#0D5474"/>
<path d="M122.895 20.8115C127.598 18.2406 129.326 12.3439 126.755 7.64086C124.185 2.93781 118.288 1.20938 113.585 3.7803C108.882 6.35122 107.153 12.2479 109.724 16.951C112.295 21.654 118.192 23.3825 122.895 20.8115Z" fill="#A0616A"/>
<path d="M103.383 89.1464C103.842 88.7905 104.218 88.3384 104.483 87.8217C104.749 87.3051 104.898 86.7365 104.92 86.156C104.942 85.5756 104.836 84.9973 104.611 84.4621C104.385 83.9268 104.045 83.4475 103.614 83.058L109.125 70.058L101.909 71.3861L97.7814 83.5276C97.175 84.2949 96.8712 85.2579 96.9274 86.2343C96.9836 87.2107 97.3961 88.1325 98.0866 88.8251C98.7771 89.5177 99.6976 89.933 100.674 89.9922C101.65 90.0514 102.614 89.7504 103.383 89.1464H103.383Z" fill="#A0616A"/>
<path d="M98.0585 79.0341L99.8332 75.2873C99.7235 75.2213 99.6331 75.1276 99.5711 75.0156C97.913 72.142 107.929 48.2784 108.596 46.6955C108.494 45.8347 107.443 36.7118 108.212 33.6368C109.117 30.0169 110.975 28.3298 114.425 27.9957C118.23 27.6384 119.256 32.8052 119.266 32.8577L119.27 46.1407L114.903 61.4309L104.944 81.7465L98.0585 79.0341Z" fill="#0D5474"/>
<path d="M119.481 15.9523C118.317 16.1036 117.44 14.9133 117.033 13.813C116.626 12.7127 116.316 11.4317 115.304 10.8373C113.922 10.0253 112.154 11.002 110.574 10.7341C108.789 10.4315 107.629 8.54016 107.538 6.73236C107.447 4.92457 108.166 3.18587 108.872 1.51911L109.119 3.59051C109.086 2.88846 109.234 2.18969 109.548 1.56105C109.862 0.932411 110.332 0.394923 110.914 0L110.596 3.03948C110.795 1.33669 112.63 0.0172529 114.307 0.370124L114.257 2.18115C116.319 1.93605 118.398 1.69061 120.465 1.87734C122.533 2.06407 124.614 2.71816 126.181 4.07965C128.525 6.11623 129.381 9.4697 129.094 12.5614C128.806 15.653 127.53 18.5574 126.2 21.3631C125.865 22.069 125.402 22.8656 124.626 22.9555C123.929 23.0363 123.291 22.4534 123.074 21.7858C122.857 21.1182 122.963 20.3928 123.093 19.703C123.289 18.6609 123.536 17.5958 123.352 16.5516C123.168 15.5073 122.416 14.4754 121.364 14.3475C120.311 14.2195 119.234 15.4227 119.74 16.3545L119.481 15.9523Z" fill="#2F2E41"/>
<path d="M161.967 144.994H92.1274V144.423H162.07L161.967 144.994Z" fill="#3F3D56"/>
</g>
<defs>
<clipPath id="clip0_36_139">
<rect width="162.07" height="145" fill="white"/>
</clipPath>
</defs>
</svg>
