<svg width="603" height="470" viewBox="0 0 603 470" fill="none" xmlns="http://www.w3.org/2000/svg">
<g clip-path="url(#clip0_23_17)">
<path d="M531.277 437.097C531.233 436.903 526.983 417.495 535.662 401.375C544.342 385.256 562.868 378.147 563.055 378.076L563.901 377.758L564.101 378.642C564.145 378.836 568.395 398.245 559.716 414.365C551.037 430.484 532.51 437.593 532.323 437.663L531.476 437.981L531.277 437.097ZM562.74 379.915C559.029 381.514 544.382 388.511 537.052 402.125C529.721 415.741 531.933 431.843 532.638 435.824C536.347 434.229 550.988 427.243 558.326 413.614C565.657 399.999 563.446 383.899 562.74 379.915Z" fill="#3F3D56"/>
<path d="M553.083 408.71C537.486 418.108 531.479 436.775 531.479 436.775C531.479 436.775 550.76 440.204 566.357 430.807C581.954 421.409 587.961 402.742 587.961 402.742C587.961 402.742 568.68 399.312 553.083 408.71Z" fill="#D0CDE1"/>
<path d="M214.204 352.162C212.35 352.162 210.476 352.132 208.637 352.075L208.679 350.737C211.319 350.819 214.014 350.842 216.668 350.806L216.686 352.145C215.86 352.156 215.033 352.161 214.204 352.162ZM224.73 351.851L224.652 350.515C227.297 350.358 229.975 350.139 232.613 349.862L232.753 351.193C230.095 351.472 227.396 351.694 224.73 351.851V351.851ZM200.6 351.642C197.933 351.438 195.238 351.17 192.589 350.844L192.753 349.516C195.381 349.838 198.055 350.105 200.702 350.307L200.6 351.642ZM240.737 350.17L240.536 348.847C243.164 348.447 245.812 347.984 248.404 347.468L248.665 348.781C246.052 349.3 243.385 349.768 240.737 350.17V350.17ZM184.625 349.68C181.99 349.233 179.331 348.719 176.721 348.152L177.005 346.843C179.595 347.406 182.234 347.916 184.848 348.36L184.625 349.68ZM256.523 347.028L256.201 345.728C258.781 345.089 261.375 344.383 263.911 343.63L264.291 344.914C261.735 345.673 259.122 346.384 256.523 347.028ZM168.896 346.26C166.312 345.572 163.711 344.815 161.167 344.008L161.569 342.732C164.095 343.532 166.676 344.283 169.24 344.966L168.896 346.26ZM271.953 342.443L271.515 341.179C274.018 340.307 276.535 339.365 278.998 338.378L279.494 339.621C277.013 340.616 274.476 341.565 271.953 342.443ZM153.529 341.395C151.019 340.471 148.493 339.474 146.023 338.431L146.542 337.197C148.994 338.231 151.499 339.221 153.99 340.138L153.529 341.395ZM286.881 336.461L286.327 335.243C288.731 334.149 291.147 332.981 293.508 331.772L294.117 332.965C291.737 334.183 289.303 335.359 286.881 336.461ZM301.186 329.138L300.524 327.976C302.829 326.658 305.13 325.273 307.362 323.859L308.077 324.99C305.828 326.416 303.509 327.811 301.186 329.138V329.138ZM314.772 320.53L314.007 319.433C316.178 317.914 318.344 316.323 320.445 314.706L321.26 315.767C319.143 317.397 316.96 319 314.772 320.53V320.53ZM110.992 318.644C108.834 317.074 106.678 315.43 104.584 313.756L105.418 312.71C107.496 314.371 109.636 316.003 111.777 317.56L110.992 318.644ZM327.526 310.713L326.664 309.69C328.687 307.98 330.7 306.198 332.649 304.394L333.557 305.377C331.593 307.195 329.564 308.991 327.526 310.713V310.713ZM98.4068 308.581C96.397 306.818 94.4002 304.985 92.4724 303.131L93.3981 302.165C95.3116 304.005 97.293 305.824 99.2874 307.574L98.4068 308.581ZM339.34 299.769L338.388 298.829C340.253 296.936 342.098 294.977 343.871 293.007L344.864 293.903C343.078 295.889 341.22 297.862 339.34 299.769V299.769ZM86.7933 297.418C84.9493 295.476 83.1282 293.469 81.3805 291.453L82.3905 290.575C84.1248 292.577 85.9318 294.568 87.7621 296.495L86.7933 297.418ZM350.117 287.791L349.084 286.941C350.769 284.887 352.428 282.768 354.016 280.641L355.087 281.443C353.487 283.586 351.815 285.722 350.117 287.791ZM76.2456 285.249C74.5896 283.153 72.9591 280.99 71.3991 278.818L72.4841 278.036C74.0324 280.191 75.6504 282.338 77.294 284.418L76.2456 285.249ZM359.762 274.873L358.656 274.121C360.148 271.923 361.608 269.66 362.997 267.394L364.136 268.095C362.736 270.378 361.265 272.658 359.762 274.873ZM66.8521 272.176C65.3952 269.939 63.9694 267.637 62.6138 265.333L63.7654 264.653C65.1109 266.94 66.5259 269.224 67.9717 271.443L66.8521 272.176ZM368.196 261.121L367.026 260.474C368.309 258.148 369.556 255.759 370.734 253.373L371.932 253.967C370.747 256.37 369.489 258.778 368.196 261.121H368.196ZM375.336 246.646L374.111 246.109C375.177 243.672 376.2 241.176 377.152 238.692L378.401 239.172C377.441 241.676 376.409 244.19 375.336 246.646H375.336ZM51.8402 243.757C50.8152 241.293 49.8336 238.773 48.9229 236.265L50.1797 235.807C51.0832 238.296 52.0573 240.797 53.0741 243.242L51.8402 243.757ZM381.118 231.561L379.849 231.14C380.683 228.622 381.47 226.049 382.188 223.49L383.476 223.853C382.752 226.431 381.958 229.024 381.118 231.561V231.561ZM46.3475 228.627C45.552 226.075 44.8045 223.468 44.1258 220.878L45.4191 220.538C46.0925 223.109 46.8345 225.696 47.6238 228.228L46.3475 228.627ZM385.475 216.043L384.173 215.74C384.772 213.159 385.319 210.524 385.8 207.908L387.115 208.15C386.63 210.787 386.079 213.442 385.475 216.043ZM42.2639 213.035C41.7064 210.419 41.2018 207.755 40.7644 205.114L42.0831 204.894C42.5176 207.516 43.0183 210.16 43.5716 212.755L42.2639 213.035ZM388.389 200.191L387.064 200.009C387.424 197.387 387.727 194.713 387.967 192.061L389.298 192.181C389.057 194.854 388.751 197.548 388.389 200.191ZM39.629 197.134C39.3137 194.483 39.0549 191.783 38.8593 189.11L40.1931 189.012C40.3867 191.666 40.6439 194.345 40.9569 196.975L39.629 197.134ZM389.843 184.139L388.507 184.079C388.626 181.426 388.687 178.735 388.687 176.081H390.024C390.024 178.755 389.963 181.466 389.843 184.139ZM38.4542 181.058C38.4085 179.417 38.3854 177.741 38.385 176.081C38.385 175.05 38.3938 174.022 38.4115 172.995L39.7485 173.019C39.7309 174.038 39.722 175.058 39.722 176.081C39.7224 177.729 39.7455 179.392 39.7906 181.022L38.4542 181.058ZM40.0658 165.025L38.7313 164.941C38.8981 162.266 39.1286 159.564 39.4155 156.91L40.7447 157.054C40.4598 159.688 40.2316 162.37 40.0658 165.025H40.0658ZM387.823 156.856C387.556 154.216 387.189 152.929 386.801 150.301L388.124 150.105C388.514 152.754 388.849 154.775 389.119 157.435L387.823 156.856ZM41.7857 149.122L40.4643 148.918C40.874 146.269 41.3499 143.599 41.879 140.981L43.1893 141.247C42.6644 143.844 42.1921 146.494 41.7857 149.122H41.7857ZM385.452 142.417C384.942 139.805 384.367 137.175 383.741 134.602L385.041 134.286C385.671 136.879 386.25 139.528 386.764 142.16L385.452 142.417ZM44.9527 133.444L43.6558 133.119C44.305 130.525 45.0242 127.91 45.7932 125.346L47.0734 125.731C46.3106 128.276 45.597 130.871 44.9527 133.444ZM381.673 126.874C380.928 124.325 380.113 121.76 379.252 119.251L380.516 118.815C381.384 121.344 382.205 123.929 382.957 126.498L381.673 126.874ZM49.5552 118.104L48.2939 117.66C49.1825 115.128 50.1418 112.585 51.1452 110.1L52.385 110.602C51.3891 113.068 50.4369 115.592 49.5552 118.104V118.104ZM376.481 111.747C375.506 109.283 374.461 106.809 373.376 104.396L374.596 103.846C375.689 106.278 376.742 108.77 377.724 111.253L376.481 111.747ZM55.5562 103.242L54.3413 102.683C55.4579 100.248 56.6465 97.8054 57.8738 95.4242L59.062 96.0382C57.8438 98.4014 56.6644 100.825 55.5562 103.242ZM369.938 97.1928C368.741 94.829 367.473 92.4602 366.169 90.1532L367.333 89.4935C368.647 91.8185 369.924 94.2052 371.13 96.5874L369.938 97.1928ZM62.8945 89.0051L61.7357 88.3369C63.0695 86.0175 64.476 83.6958 65.9165 81.4368L67.0434 82.1573C65.614 84.3993 64.2178 86.7033 62.8945 89.0051ZM362.083 83.2907C360.67 81.0383 359.191 78.7944 357.686 76.6212L358.784 75.8581C360.3 78.0481 361.791 80.309 363.215 82.5787L362.083 83.2907ZM71.5003 75.5087L70.4075 74.7372C71.9489 72.5479 73.5604 70.3658 75.1984 68.2513L76.2547 69.0719C74.6294 71.1706 73.0296 73.336 71.5003 75.5087ZM352.988 70.1578C351.377 68.0444 349.699 65.9433 347.999 63.9132L349.024 63.0531C350.736 65.0989 352.427 67.2157 354.051 69.3451L352.988 70.1578ZM81.2963 62.8609L80.2785 61.9926C82.0082 59.958 83.8111 57.9327 85.6368 55.9733L86.6141 56.8867C84.8024 58.8314 83.0133 60.8416 81.2963 62.8609ZM342.732 57.9011C340.936 55.9432 339.073 54.0027 337.195 52.1341L338.138 51.1841C340.03 53.0674 341.907 55.0223 343.717 56.9949L342.732 57.9011ZM92.1962 51.1631L91.2614 50.2059C93.1732 48.3328 95.1517 46.4808 97.1412 44.7018L98.0317 45.7008C96.0572 47.4661 94.0937 49.304 92.1962 51.1631V51.1631ZM331.403 46.624C329.434 44.8362 327.402 43.0728 325.363 41.383L326.215 40.3513C328.27 42.0539 330.318 43.8306 332.301 45.6322L331.403 46.624ZM104.108 40.5102L103.264 39.4719C105.332 37.7854 107.469 36.1221 109.616 34.5281L110.413 35.6036C108.281 37.1858 106.16 38.8364 104.108 40.5102H104.108ZM116.932 30.9916L116.185 29.8807C118.399 28.3894 120.677 26.9291 122.958 25.5394L123.652 26.6836C121.389 28.0625 119.128 29.512 116.932 30.9916H116.932ZM130.561 22.6888L129.919 21.5138C132.261 20.2307 134.662 18.9859 137.055 17.8132L137.642 19.0163C135.267 20.1797 132.885 21.4151 130.561 22.6888ZM291.921 19.5864C289.542 18.3994 287.105 17.2526 284.677 16.178L285.218 14.9534C287.664 16.0362 290.12 17.1918 292.517 18.3879L291.921 19.5864ZM144.882 15.6736L144.35 14.4451C146.797 13.383 149.3 12.3643 151.79 11.4173L152.264 12.6693C149.794 13.6089 147.31 14.6197 144.882 15.6736ZM277.282 13.1064C274.807 12.145 272.273 11.2277 269.751 10.3803L270.177 9.11061C272.718 9.96482 275.271 10.889 277.766 11.8583L277.282 13.1064ZM159.796 10.0021L159.379 8.72976C161.92 7.89549 164.512 7.10993 167.084 6.39563L167.441 7.68561C164.889 8.39468 162.317 9.17405 159.796 10.0021H159.796ZM262.121 8.01122C259.571 7.28319 256.97 6.60518 254.39 5.99615L254.697 4.6931C257.297 5.3067 259.917 5.98994 262.488 6.7232L262.121 8.01122ZM175.186 5.72449L174.888 4.41914C177.493 3.82319 180.147 3.28019 182.775 2.80552L183.012 4.12297C180.404 4.59437 177.771 5.13311 175.186 5.72449ZM246.575 4.34069C243.972 3.85128 241.32 3.41586 238.693 3.04646L238.878 1.72051C241.525 2.09286 244.198 2.53157 246.822 3.02455L246.575 4.34069ZM190.904 2.88366L190.727 1.55641C193.374 1.20269 196.066 0.905205 198.727 0.673099L198.844 2.00689C196.202 2.23768 193.531 2.53252 190.904 2.88366ZM230.759 2.11542C228.125 1.86697 225.444 1.6754 222.791 1.54693L222.856 0.209216C225.529 0.339 228.23 0.531874 230.884 0.782318L230.759 2.11542ZM206.816 1.49331L206.76 0.155634C209.217 0.0529848 211.722 0.000686636 214.204 3.05176e-05L214.81 0.00100614L214.806 1.34002L214.204 1.33905C211.741 1.33967 209.255 1.39164 206.816 1.49331V1.49331Z" fill="#3F3D56"/>
<path d="M603 436.715H112.979V438.054H603V436.715Z" fill="#3F3D56"/>
<path d="M399.779 211.582L406.464 315.355C406.464 315.355 422.508 356.195 421.84 395.027C421.84 395.027 415.823 410.426 420.503 413.104C425.182 415.782 427.857 417.79 425.182 419.799C422.508 421.807 420.503 426.494 422.508 427.833C424.514 429.172 425.182 431.18 424.514 431.18H404.459C404.459 431.18 408.47 421.138 402.453 418.46C396.436 415.782 399.779 409.087 399.779 409.087L354.988 277.863L319.557 398.375C319.557 398.375 325.574 402.392 320.894 404.4C316.215 406.409 314.209 402.392 316.215 406.409C318.22 410.426 315.546 412.434 315.546 413.104C315.546 413.773 295.491 411.095 295.491 411.095C295.491 411.095 305.518 402.392 300.839 400.383C296.159 398.375 294.154 396.366 295.491 395.027C296.828 393.688 302.176 380.967 302.176 380.967C302.176 380.967 304.85 332.763 305.518 330.754C306.187 328.746 305.518 319.372 305.518 314.686C305.518 309.999 304.85 291.253 306.855 286.567C308.861 281.88 310.866 224.302 321.563 217.607C332.259 210.912 399.779 211.582 399.779 211.582Z" fill="#2F2E41"/>
<path d="M314.877 409.756C314.877 409.756 328.248 437.206 318.889 440.554C309.529 443.901 297.496 441.223 294.822 445.24C292.148 449.257 262.733 453.944 262.065 443.901C261.396 433.858 294.154 415.112 294.154 415.112L298.421 408.231L314.877 409.756Z" fill="#2F2E41"/>
<path d="M423.177 429.841C423.177 429.841 436.547 457.291 427.188 460.639C417.829 463.986 405.796 461.308 403.121 465.325C400.447 469.342 371.033 474.029 370.364 463.986C369.696 453.944 402.453 435.198 402.453 435.198L406.72 428.316L423.177 429.841Z" fill="#2F2E41"/>
<path d="M361.339 85.3792C373.523 85.3792 383.4 75.4875 383.4 63.2854C383.4 51.0834 373.523 41.1917 361.339 41.1917C349.155 41.1917 339.278 51.0834 339.278 63.2854C339.278 75.4875 349.155 85.3792 361.339 85.3792Z" fill="#A0616A"/>
<path d="M376.381 75.0017L373.707 94.4175L353.652 109.816L348.303 102.452V77.0102L376.381 75.0017Z" fill="#A0616A"/>
<path d="M344.961 99.7736C344.961 99.7736 365.685 101.782 376.381 94.4176L397.773 220.955C397.773 220.955 322.231 226.98 318.889 222.963V183.462L332.259 119.189L344.961 99.7736Z" fill="#0D5474"/>
<path d="M374.54 88.3678L381.729 94.4176C381.729 94.4176 411.144 99.1041 409.138 107.138L401.116 202.208L403.79 234.345C403.79 234.345 381.06 228.319 363.679 234.345C346.298 240.37 360.107 104.86 360.107 104.86C360.107 104.86 376.042 90.3521 374.54 88.3678Z" fill="#D0CDE1"/>
<path d="M348.303 95.696C348.303 95.696 326.911 111.155 324.237 121.198C321.563 131.241 312.872 237.023 312.872 237.023C312.872 237.023 316.883 235.014 318.889 238.362C320.894 241.709 351.646 100.991 348.303 95.696Z" fill="#D0CDE1"/>
<path d="M339.289 62.3228C339.289 62.3228 336.901 58.7351 337.819 54.8715C338.368 52.6779 338.585 50.4141 338.462 48.1561C338.462 48.1561 340.391 41.9006 342.32 38.4049C344.249 34.9092 343.331 33.4374 349.393 32.3335C355.455 31.2296 352.975 23.3183 368.958 31.8735C369.497 32.6275 370.248 33.2046 371.114 33.5321C371.98 33.8595 372.924 33.9226 373.827 33.7133C377.133 33.0694 378.327 37.669 378.327 37.669C378.327 37.669 380.532 36.3811 381.359 38.2209C382.185 40.0607 388.08 37.1167 388.08 49.5356C388.08 61.9545 381.372 73.0478 381.372 73.0478C381.372 73.0478 381.864 52.1577 370.933 50.0419C360.002 47.9261 348.245 41.7626 345.397 49.6739C343.86 54.1142 341.81 58.3593 339.289 62.3228V62.3228Z" fill="#2F2E41"/>
<path d="M381.612 67.2897C382.802 67.2897 383.768 66.0007 383.768 64.4107C383.768 62.8206 382.802 61.5316 381.612 61.5316C380.421 61.5316 379.456 62.8206 379.456 64.4107C379.456 66.0007 380.421 67.2897 381.612 67.2897Z" fill="#A0616A"/>
<path d="M291.005 271.452C285.715 268.266 279.337 268.51 276.912 268.753C277.836 271.011 280.606 276.77 285.896 279.957C291.199 283.151 297.569 282.9 299.99 282.659C299.067 280.402 296.296 274.64 291.005 271.452Z" fill="#D0CDE1"/>
<path d="M315.863 334.67H282.801C280.828 334.67 278.935 335.455 277.54 336.852C276.145 338.249 275.362 340.144 275.362 342.12C275.362 344.096 276.145 345.991 277.54 347.388C278.935 348.785 280.828 349.57 282.801 349.57H315.863C317.834 349.568 319.725 348.782 321.118 347.385C322.512 345.988 323.294 344.094 323.294 342.12C323.294 340.145 322.512 338.251 321.118 336.854C319.725 335.457 317.834 334.672 315.863 334.67Z" fill="#D0CDE1"/>
<path d="M465.579 256.031H280.21C278.054 256.031 275.918 256.456 273.926 257.282C271.934 258.109 270.124 259.32 268.599 260.847C267.074 262.374 265.865 264.187 265.04 266.182C264.214 268.177 263.79 270.316 263.79 272.475V362.925C263.79 367.286 265.52 371.469 268.599 374.553C271.678 377.637 275.855 379.37 280.21 379.37H465.579C467.735 379.37 469.87 378.944 471.862 378.118C473.855 377.292 475.665 376.08 477.19 374.553C478.714 373.026 479.924 371.213 480.749 369.218C481.574 367.223 481.999 365.085 481.999 362.925V272.475C481.999 270.316 481.574 268.177 480.749 266.182C479.924 264.187 478.714 262.374 477.19 260.847C475.665 259.32 473.855 258.109 471.862 257.282C469.87 256.456 467.735 256.031 465.579 256.031ZM275.624 267.248C275.99 267.182 284.67 265.703 291.857 270.034C299.044 274.365 301.806 282.739 301.92 283.093L302.21 283.996L301.277 284.161C299.947 284.369 298.602 284.468 297.255 284.457C293.991 284.457 289.261 283.916 285.043 281.375C277.856 277.045 275.095 268.671 274.982 268.317L274.691 267.414L275.624 267.248ZM315.862 351.225H282.8C280.389 351.225 278.076 350.266 276.371 348.558C274.666 346.851 273.708 344.535 273.708 342.12C273.708 339.705 274.666 337.389 276.371 335.681C278.076 333.973 280.389 333.014 282.8 333.014H315.862C318.274 333.014 320.586 333.973 322.291 335.681C323.997 337.389 324.954 339.705 324.954 342.12C324.954 344.535 323.997 346.851 322.291 348.558C320.586 350.266 318.274 351.225 315.862 351.225V351.225ZM466.295 349.57C466.287 352.202 465.239 354.724 463.381 356.585C461.523 358.446 459.004 359.495 456.376 359.503H431.579C428.951 359.495 426.433 358.446 424.574 356.585C422.716 354.724 421.669 352.202 421.661 349.57V334.67C421.669 332.038 422.716 329.515 424.574 327.654C426.433 325.793 428.951 324.744 431.579 324.736H456.376C459.004 324.744 461.523 325.793 463.381 327.654C465.239 329.515 466.287 332.038 466.295 334.67L466.295 349.57Z" fill="#D0CDE1"/>
<path d="M439.432 346.672H428.687C427.919 346.672 427.184 346.978 426.641 347.521C426.098 348.064 425.794 348.801 425.794 349.57C425.794 350.338 426.098 351.075 426.641 351.618C427.184 352.162 427.919 352.467 428.687 352.467H439.432C440.199 352.467 440.935 352.162 441.477 351.618C442.02 351.075 442.325 350.338 442.325 349.57C442.325 348.801 442.02 348.064 441.477 347.521C440.935 346.978 440.199 346.672 439.432 346.672V346.672ZM439.432 350.811H428.687C428.524 350.812 428.362 350.78 428.211 350.718C428.061 350.655 427.923 350.564 427.808 350.449C427.693 350.333 427.601 350.196 427.539 350.046C427.476 349.895 427.444 349.733 427.444 349.57C427.444 349.406 427.476 349.245 427.539 349.094C427.601 348.943 427.693 348.806 427.808 348.691C427.923 348.575 428.061 348.484 428.211 348.422C428.362 348.359 428.524 348.328 428.687 348.328H439.432C439.595 348.328 439.756 348.359 439.907 348.422C440.058 348.484 440.195 348.575 440.31 348.691C440.426 348.806 440.517 348.943 440.58 349.094C440.642 349.245 440.674 349.406 440.674 349.57C440.674 349.733 440.642 349.895 440.58 350.046C440.517 350.196 440.426 350.333 440.31 350.449C440.195 350.564 440.058 350.655 439.907 350.718C439.756 350.78 439.595 350.812 439.432 350.811V350.811Z" fill="#D0CDE1"/>
<path d="M459.269 346.672H448.524C448.144 346.672 447.767 346.746 447.416 346.892C447.064 347.037 446.745 347.25 446.475 347.519C446.206 347.789 445.993 348.108 445.847 348.46C445.702 348.812 445.627 349.189 445.627 349.57C445.627 349.951 445.702 350.328 445.847 350.679C445.993 351.031 446.206 351.351 446.475 351.62C446.745 351.889 447.064 352.102 447.416 352.248C447.767 352.393 448.144 352.467 448.524 352.467H459.269C460.036 352.467 460.772 352.162 461.315 351.618C461.857 351.075 462.162 350.338 462.162 349.57C462.162 348.801 461.857 348.064 461.315 347.521C460.772 346.978 460.036 346.672 459.269 346.672ZM459.269 350.811H448.524C448.361 350.812 448.199 350.78 448.049 350.718C447.898 350.655 447.761 350.564 447.645 350.449C447.53 350.333 447.438 350.196 447.376 350.046C447.313 349.895 447.281 349.733 447.281 349.57C447.281 349.406 447.313 349.245 447.376 349.094C447.438 348.943 447.53 348.806 447.645 348.691C447.761 348.575 447.898 348.484 448.049 348.422C448.199 348.359 448.361 348.328 448.524 348.328H459.269C459.597 348.329 459.912 348.46 460.144 348.693C460.376 348.926 460.506 349.241 460.506 349.57C460.506 349.899 460.376 350.214 460.144 350.447C459.912 350.679 459.597 350.811 459.269 350.811V350.811Z" fill="#D0CDE1"/>
<path d="M439.432 339.222H428.687C427.919 339.222 427.184 339.528 426.641 340.071C426.098 340.614 425.794 341.351 425.794 342.12C425.794 342.888 426.098 343.625 426.641 344.168C427.184 344.712 427.919 345.017 428.687 345.017H439.432C439.812 345.017 440.189 344.943 440.54 344.798C440.892 344.652 441.211 344.439 441.48 344.17C441.749 343.901 441.963 343.581 442.108 343.229C442.254 342.878 442.329 342.5 442.329 342.12C442.329 341.739 442.254 341.362 442.108 341.01C441.963 340.658 441.749 340.339 441.48 340.069C441.211 339.8 440.892 339.587 440.54 339.442C440.189 339.296 439.812 339.222 439.432 339.222V339.222ZM439.432 343.361H428.687C428.358 343.361 428.042 343.23 427.81 342.998C427.577 342.765 427.447 342.449 427.447 342.12C427.447 341.79 427.577 341.475 427.81 341.242C428.042 341.009 428.358 340.878 428.687 340.878H439.432C439.761 340.878 440.076 341.009 440.308 341.242C440.541 341.475 440.672 341.79 440.672 342.12C440.672 342.449 440.541 342.765 440.308 342.998C440.076 343.23 439.761 343.361 439.432 343.361V343.361Z" fill="#D0CDE1"/>
<path d="M459.269 339.222H448.524C448.144 339.222 447.767 339.296 447.416 339.442C447.064 339.587 446.745 339.8 446.475 340.069C446.206 340.339 445.993 340.658 445.847 341.01C445.702 341.362 445.627 341.739 445.627 342.12C445.627 342.5 445.702 342.878 445.847 343.229C445.993 343.581 446.206 343.901 446.475 344.17C446.745 344.439 447.064 344.652 447.416 344.798C447.767 344.943 448.144 345.017 448.524 345.017H459.269C460.036 345.017 460.772 344.712 461.315 344.168C461.857 343.625 462.162 342.888 462.162 342.12C462.162 341.351 461.857 340.614 461.315 340.071C460.772 339.528 460.036 339.222 459.269 339.222ZM459.269 343.361H448.524C448.195 343.361 447.88 343.23 447.647 342.998C447.415 342.765 447.284 342.449 447.284 342.12C447.284 341.79 447.415 341.475 447.647 341.242C447.88 341.009 448.195 340.878 448.524 340.878H459.269C459.598 340.878 459.913 341.009 460.146 341.242C460.378 341.475 460.509 341.79 460.509 342.12C460.509 342.449 460.378 342.765 460.146 342.998C459.913 343.23 459.598 343.361 459.269 343.361Z" fill="#D0CDE1"/>
<path d="M439.432 331.772H428.687C427.919 331.772 427.184 332.078 426.641 332.621C426.098 333.164 425.794 333.901 425.794 334.67C425.794 335.438 426.098 336.175 426.641 336.718C427.184 337.262 427.919 337.567 428.687 337.567H439.432C440.199 337.567 440.935 337.262 441.477 336.718C442.02 336.175 442.325 335.438 442.325 334.67C442.325 333.901 442.02 333.164 441.477 332.621C440.935 332.078 440.199 331.772 439.432 331.772V331.772ZM439.432 335.911H428.687C428.358 335.911 428.042 335.781 427.81 335.548C427.577 335.315 427.447 334.999 427.447 334.67C427.447 334.34 427.577 334.025 427.81 333.792C428.042 333.559 428.358 333.428 428.687 333.428H439.432C439.761 333.428 440.076 333.559 440.308 333.792C440.541 334.025 440.672 334.34 440.672 334.67C440.672 334.999 440.541 335.315 440.308 335.548C440.076 335.781 439.761 335.911 439.432 335.911V335.911Z" fill="#D0CDE1"/>
<path d="M459.269 331.772H448.524C448.144 331.772 447.767 331.846 447.416 331.992C447.064 332.137 446.745 332.35 446.475 332.619C446.206 332.889 445.993 333.208 445.847 333.56C445.702 333.912 445.627 334.289 445.627 334.67C445.627 335.051 445.702 335.428 445.847 335.779C445.993 336.131 446.206 336.451 446.475 336.72C446.745 336.989 447.064 337.202 447.416 337.348C447.767 337.493 448.144 337.567 448.524 337.567H459.269C460.036 337.566 460.77 337.26 461.312 336.717C461.853 336.174 462.158 335.437 462.158 334.67C462.158 333.902 461.853 333.166 461.312 332.623C460.77 332.079 460.036 331.774 459.269 331.772V331.772ZM459.269 335.911H448.524C448.195 335.911 447.88 335.781 447.647 335.548C447.415 335.315 447.284 334.999 447.284 334.67C447.284 334.34 447.415 334.025 447.647 333.792C447.88 333.559 448.195 333.428 448.524 333.428H459.269C459.598 333.428 459.913 333.559 460.146 333.792C460.378 334.025 460.509 334.34 460.509 334.67C460.509 334.999 460.378 335.315 460.146 335.548C459.913 335.781 459.598 335.911 459.269 335.911Z" fill="#D0CDE1"/>
<path d="M407.133 235.684L402.34 251.345C402.34 251.345 401.116 280.541 385.072 276.524C369.027 272.507 389.751 238.362 389.751 238.362L394.431 230.997L407.133 235.684Z" fill="#A0616A"/>
<path d="M316.214 235.684L311.422 251.345C311.422 251.345 310.198 280.541 294.153 276.524C278.109 272.507 298.833 238.362 298.833 238.362L303.513 230.997L316.214 235.684Z" fill="#A0616A"/>
<path d="M403.79 102.452C403.79 102.452 414.486 99.7736 417.829 117.85C421.171 135.927 425.183 187.479 425.183 187.479L409.138 241.709C409.138 241.709 393.094 233.006 389.751 234.345L402.377 187.264L391.757 139.275C391.757 139.275 401.116 102.452 403.79 102.452Z" fill="#D0CDE1"/>
<path opacity="0.15" d="M388.238 140.19L402.277 187.056L388.238 234.591L396.26 187.056L388.238 140.19Z" fill="black"/>
<path d="M324.237 139.275L300.17 234.345C300.17 234.345 312.865 238.541 317.545 241.888L324.237 139.275Z" fill="#D0CDE1"/>
<path d="M71.7732 378.195C108.694 378.195 138.625 348.22 138.625 311.244C138.625 274.268 108.694 244.293 71.7732 244.293C34.8522 244.293 4.92175 274.268 4.92175 311.244C4.92175 348.22 34.8522 378.195 71.7732 378.195Z" fill="#0D5474"/>
<path opacity="0.1" d="M71.7733 368.822C103.525 368.822 129.266 343.043 129.266 311.244C129.266 279.445 103.525 253.666 71.7733 253.666C40.0212 253.666 14.281 279.445 14.281 311.244C14.281 343.043 40.0212 368.822 71.7733 368.822Z" fill="black"/>
<path d="M69.0184 345.22V336.84C64.7884 336.757 60.4125 335.263 57.8601 333.189L59.6103 327.63C62.6435 329.907 66.322 331.156 70.1123 331.197C75.2904 331.197 78.7911 327.796 78.7911 323.066C78.7911 318.503 75.9467 315.682 70.5499 313.192C63.1109 309.874 58.5164 306.057 58.5164 298.838C58.5164 291.951 62.8193 286.724 69.529 285.479V277.099H74.0505V285.148C77.4222 285.194 80.711 286.201 83.5316 288.052L81.7081 293.528C79.0029 291.673 75.7973 290.689 72.519 290.707C66.9036 290.707 64.7884 294.523 64.7884 297.842C64.7884 302.157 67.4869 304.314 73.8319 307.302C81.3435 310.786 85.1361 315.101 85.1361 322.485C85.1361 329.04 81.1249 335.181 73.6129 336.59V345.22H69.0184Z" fill="#F9B759"/>
<path d="M142.394 447.428C95.1901 454.478 47.2035 454.478 0 447.428V431.359C47.2536 437.697 95.14 437.697 142.394 431.359V447.428Z" fill="#0D5474"/>
<path d="M142.394 422.656C95.1901 429.706 47.2035 429.706 0 422.656V406.588C47.2536 412.925 95.14 412.925 142.394 406.588V422.656Z" fill="#0D5474"/>
<path d="M142.394 397.884C95.1901 404.934 47.2035 404.934 0 397.884V381.816C47.2536 388.153 95.14 388.153 142.394 381.816V397.884Z" fill="#0D5474"/>
</g>
<defs>
<clipPath id="clip0_23_17">
<rect width="603" height="470" fill="white"/>
</clipPath>
</defs>
</svg>
